<svg xmlns="http://www.w3.org/2000/svg" width="240.927" height="43.141" viewBox="0 0 240.927 43.141">
  <g id="Group_730" data-name="Group 730" transform="translate(-72.441 -797.384)">
    <g id="Group_732" data-name="Group 732" transform="translate(72.441 797.384)">
      <path id="Path_511" data-name="Path 511" d="M208.611,871.558l6.618-3.61L193.369,857.92l7.421,22.663L205,874.968l8.022,8.825,3.811-3.61Z" transform="translate(-158.873 -840.652)" fill="#fff"/>
      <path id="Path_512" data-name="Path 512" d="M97.11,813.649s-17.248-13.839-24.669-14.641L97.31,821.271s20.056-25.471,44.323-22.462C141.633,798.808,122.38,790.585,97.11,813.649Z" transform="translate(-72.441 -797.384)" fill="#fff"/>
      <g id="Group_731" data-name="Group 731" transform="translate(0 1.224)">
        <g id="Group_730-2" data-name="Group 730">
          <path id="Path_513" data-name="Path 513" d="M76.653,838.439V815.914l-4.212-3.49v30.226h37.929l-1.458-4.212Z" transform="translate(-72.441 -809.358)" fill="#fff"/>
          <path id="Path_514" data-name="Path 514" d="M99.487,805.887h23.219c1.985-1.061,5.593-2.944,8.492-4.212H92.429Z" transform="translate(-86.727 -801.675)" fill="#fff"/>
          <path id="Path_515" data-name="Path 515" d="M234.85,822.278v11.975l4.212,2.042v-15.96Z" transform="translate(-188.521 -815.012)" fill="#fff"/>
        </g>
      </g>
    </g>
    <g id="Group_737" data-name="Group 737" transform="translate(233.139 805.778)">
      <g id="Group_733" data-name="Group 733">
        <path id="Path_516" data-name="Path 516" d="M635.781,853.706v-26.9h5.555v22.009h8.873v4.887Z" transform="translate(-635.781 -826.81)" fill="#fff"/>
      </g>
      <g id="Group_734" data-name="Group 734" transform="translate(14.187 6.265)">
        <path id="Path_517" data-name="Path 517" d="M706.56,859.257a10.136,10.136,0,1,1-2.96-7.521A10.176,10.176,0,0,1,706.56,859.257Zm-5.574-.039a5.319,5.319,0,0,0-1.346-3.811,5.289,5.289,0,0,0-7.208-.01,6.165,6.165,0,0,0,0,7.641,4.657,4.657,0,0,0,3.594,1.433,4.727,4.727,0,0,0,3.6-1.433A5.33,5.33,0,0,0,700.986,859.218Z" transform="translate(-685.513 -848.771)" fill="#fff"/>
      </g>
      <g id="Group_735" data-name="Group 735" transform="translate(37.102 5.959)">
        <path id="Path_518" data-name="Path 518" d="M786.273,868.239h-5.4l.078-2.856a7.427,7.427,0,0,1-2.73,2.765,7.928,7.928,0,0,1-3.884.881,7.483,7.483,0,0,1-6.154-2.937,12.091,12.091,0,0,1-2.338-7.758q0-5.023,2.3-7.829a7.8,7.8,0,0,1,6.389-2.806,7.009,7.009,0,0,1,3.747.993,7.858,7.858,0,0,1,2.71,2.957v-3.282h5.283Zm-5.087-9.966a6.406,6.406,0,0,0-1.3-4.234,4.337,4.337,0,0,0-3.512-1.56,4.413,4.413,0,0,0-3.571,1.55,6.394,6.394,0,0,0-1.3,4.244,6.253,6.253,0,0,0,1.282,4.193,4.99,4.99,0,0,0,7.132,0A6.286,6.286,0,0,0,781.186,858.273Z" transform="translate(-765.846 -847.699)" fill="#fff"/>
      </g>
      <g id="Group_736" data-name="Group 736" transform="translate(60.82 5.898)">
        <path id="Path_519" data-name="Path 519" d="M848.989,867.942V848.152h5.437v3.107a10.265,10.265,0,0,1,3.225-2.855,8.87,8.87,0,0,1,7.561-.141,5.643,5.643,0,0,1,2.387,2.37,6.545,6.545,0,0,1,.614,1.866,20.52,20.52,0,0,1,.185,3.258v12.185h-5.554v-9.785q0-3.651-.819-4.821a3.185,3.185,0,0,0-2.806-1.17,4.572,4.572,0,0,0-2.115.494,4.419,4.419,0,0,0-1.607,1.4,4.641,4.641,0,0,0-.731,1.614,12.505,12.505,0,0,0-.224,2.764v9.5Z" transform="translate(-848.989 -847.486)" fill="#fff"/>
      </g>
    </g>
    <g id="Group_740" data-name="Group 740" transform="translate(138.904 804.794)">
      <g id="Group_739" data-name="Group 739" transform="translate(0 0)">
        <g id="Group_738" data-name="Group 738">
          <path id="Path_520" data-name="Path 520" d="M305.432,850.938V823.361H311.1v27.577Z" transform="translate(-305.432 -823.361)" fill="#fff"/>
          <path id="Path_521" data-name="Path 521" d="M338.359,868.508V848.66h5.05v3.116a9.8,9.8,0,0,1,3-2.863,7.689,7.689,0,0,1,7.023-.141,5.464,5.464,0,0,1,2.217,2.377,6.912,6.912,0,0,1,.57,1.872,22.171,22.171,0,0,1,.172,3.268v12.221h-5.159V858.7q0-3.662-.76-4.836a2.866,2.866,0,0,0-2.606-1.174,3.991,3.991,0,0,0-1.964.5,4.215,4.215,0,0,0-1.493,1.406,4.835,4.835,0,0,0-.679,1.619,13.5,13.5,0,0,0-.208,2.772v9.53Z" transform="translate(-328.966 -840.966)" fill="#fff"/>
          <path id="Path_522" data-name="Path 522" d="M430.086,834.884c-6.183-8.15-13.794-1.967-13.794-1.967l.256-9.556h-5.382v27.416h5.461l-.039-1.841c.765,1.1,2.257,2.53,6.667,2.53a7.988,7.988,0,0,0,6.172-2.555,9.64,9.64,0,0,0,2.347-6.785C431.772,839.2,431.444,836.674,430.086,834.884Zm-8.853,12.366a4.992,4.992,0,0,1-2.69-.8,4.08,4.08,0,0,1-.958-.719,3.788,3.788,0,0,1-.531-.666,6.647,6.647,0,0,1-1.3-4c0-3.415,2.454-6.183,5.48-6.183s5.48,2.768,5.48,6.183S424.26,847.25,421.233,847.25Z" transform="translate(-381.004 -823.361)" fill="#fff"/>
          <path id="Path_523" data-name="Path 523" d="M508.551,858.682a10.593,10.593,0,0,1-2.911,7.627,10.522,10.522,0,0,1-14.8,0,11.391,11.391,0,0,1,.019-15.254,10.511,10.511,0,0,1,14.793-.041A10.624,10.624,0,0,1,508.551,858.682Zm-5.465-.041a5.554,5.554,0,0,0-1.319-3.885,5.041,5.041,0,0,0-7.066-.01,6.483,6.483,0,0,0,0,7.789A4.48,4.48,0,0,0,498.225,864a4.545,4.545,0,0,0,3.533-1.461A5.565,5.565,0,0,0,503.086,858.641Z" transform="translate(-435.861 -840.966)" fill="#fff"/>
          <path id="Path_524" data-name="Path 524" d="M562.284,868.508h-6.408l7.179-10.415-6.556-10.1h6.769l3.247,5.819,3.513-5.819h6.427l-6.67,9.976,7.293,10.541h-6.731l-3.909-6.519Z" transform="translate(-484.434 -840.966)" fill="#fff"/>
        </g>
      </g>
    </g>
  </g>
</svg>
