<svg xmlns="http://www.w3.org/2000/svg" width="266.876" height="47.787" viewBox="0 0 266.876 47.787">
  <g id="inbox-loans" transform="translate(0 0)">
    <g id="Group_732" data-name="Group 732" transform="translate(0 -0.001)">
      <path id="Path_511" data-name="Path 511" d="M51.379,32.375l7.331-4L34.5,17.268l8.22,25.1,4.663-6.22,8.886,9.775,4.221-4Z" transform="translate(3.715 1.86)" fill="#fff"/>
      <path id="Path_512" data-name="Path 512" d="M27.325,18.016S8.22,2.687,0,1.8l27.547,24.66S49.763-1.755,76.643,1.579C76.643,1.577,55.316-7.531,27.325,18.016Z" transform="translate(0 0.001)" fill="#fff"/>
      <g id="Group_731" data-name="Group 731" transform="translate(0 1.356)">
        <g id="Group_730-2" data-name="Group 730-2">
          <path id="Path_513" data-name="Path 513" d="M4.666,33.106V8.156L0,4.29V37.771H42.013L40.4,33.105Z" transform="translate(0 -0.894)" fill="#fff"/>
          <path id="Path_514" data-name="Path 514" d="M13.52,5.89H39.239c2.2-1.175,6.2-3.261,9.406-4.666H5.7Z" transform="translate(0.614 -1.224)" fill="#fff"/>
          <path id="Path_515" data-name="Path 515" d="M46.329,8.7V21.964l4.666,2.262V6.547Z" transform="translate(4.989 -0.651)" fill="#fff"/>
        </g>
      </g>
    </g>
    <g id="Group_737" data-name="Group 737" transform="translate(178.002 9.293)">
      <g id="Group_733" data-name="Group 733">
        <path id="Path_516" data-name="Path 516" d="M160.7,38.187V8.39h6.153V32.769h9.828v5.413Z" transform="translate(-160.698 -8.39)" fill="#fff"/>
      </g>
      <g id="Group_734" data-name="Group 734" transform="translate(16.58 6.937)">
        <path id="Path_517" data-name="Path 517" d="M198.114,26.275a11.227,11.227,0,1,1-3.279-8.331A11.228,11.228,0,0,1,198.114,26.275Zm-6.174-.043a5.891,5.891,0,0,0-1.491-4.221A5.859,5.859,0,0,0,182.465,22a6.828,6.828,0,0,0,0,8.464,5.16,5.16,0,0,0,3.981,1.587,5.235,5.235,0,0,0,3.988-1.587A5.9,5.9,0,0,0,191.94,26.232Z" transform="translate(-175.667 -14.653)" fill="#fff"/>
      </g>
      <g id="Group_735" data-name="Group 735" transform="translate(41.08 6.594)">
        <path id="Path_518" data-name="Path 518" d="M220.428,37.106h-5.981l.086-3.164a8.229,8.229,0,0,1-3.024,3.063,8.781,8.781,0,0,1-4.3.976,8.288,8.288,0,0,1-6.817-3.253,13.4,13.4,0,0,1-2.59-8.593q0-5.564,2.548-8.672a8.637,8.637,0,0,1,7.077-3.108,7.758,7.758,0,0,1,4.15,1.1,8.708,8.708,0,0,1,3,3.275V15.094h5.852Zm-5.635-11.039a7.1,7.1,0,0,0-1.44-4.69,4.8,4.8,0,0,0-3.89-1.728,4.888,4.888,0,0,0-3.956,1.717,7.087,7.087,0,0,0-1.44,4.7,6.926,6.926,0,0,0,1.42,4.645,5.528,5.528,0,0,0,7.817.084l.083-.084a6.965,6.965,0,0,0,1.406-4.645Z" transform="translate(-197.785 -14.343)" fill="#fff"/>
      </g>
      <g id="Group_736" data-name="Group 736" transform="translate(67.369 6.537)">
        <path id="Path_519" data-name="Path 519" d="M221.518,36.951V15.03h6.022v3.442a11.37,11.37,0,0,1,3.572-3.162,9.823,9.823,0,0,1,8.375-.156,6.252,6.252,0,0,1,2.644,2.625,7.285,7.285,0,0,1,.68,2.067,22.726,22.726,0,0,1,.2,3.609v13.5h-6.152V26.112q0-4.044-.907-5.34a3.529,3.529,0,0,0-3.108-1.3,5.062,5.062,0,0,0-2.343.547,4.892,4.892,0,0,0-1.78,1.551,5.146,5.146,0,0,0-.81,1.788,13.845,13.845,0,0,0-.248,3.062V36.946Z" transform="translate(-221.518 -14.292)" fill="#fff"/>
      </g>
    </g>
    <g id="Group_740" data-name="Group 740" transform="translate(73.62 8.208)">
      <g id="Group_739" data-name="Group 739">
        <g id="Group_738" data-name="Group 738">
          <path id="Path_520" data-name="Path 520" d="M66.463,37.956V7.41h6.278V37.956Z" transform="translate(-66.463 -7.41)" fill="#fff"/>
          <path id="Path_521" data-name="Path 521" d="M75.856,37.161V15.176H81.45v3.452a10.848,10.848,0,0,1,3.323-3.171,8.516,8.516,0,0,1,7.779-.156,6.053,6.053,0,0,1,2.456,2.633,7.641,7.641,0,0,1,.631,2.074,24.564,24.564,0,0,1,.191,3.62V37.163H90.115V26.3q0-4.056-.842-5.357a3.175,3.175,0,0,0-2.887-1.3,4.421,4.421,0,0,0-2.175.554,4.673,4.673,0,0,0-1.654,1.557,5.368,5.368,0,0,0-.752,1.793,15.009,15.009,0,0,0-.23,3.07V37.171Z" transform="translate(-65.452 -6.653)" fill="#fff"/>
          <path id="Path_522" data-name="Path 522" d="M117.582,20.174c-6.849-9.028-15.279-2.179-15.279-2.179l.284-10.585H96.625V37.778h6.049l-.043-2.039c.847,1.218,2.5,2.8,7.385,2.8a8.847,8.847,0,0,0,6.837-2.83,10.678,10.678,0,0,0,2.6-7.516C119.45,24.955,119.087,22.157,117.582,20.174Zm-9.806,13.7a5.534,5.534,0,0,1-2.98-.886,4.521,4.521,0,0,1-1.061-.8,4.2,4.2,0,0,1-.588-.738,7.361,7.361,0,0,1-1.44-4.431c0-3.783,2.718-6.849,6.07-6.849s6.07,3.066,6.07,6.849S111.129,33.871,107.776,33.871Z" transform="translate(-63.215 -7.41)" fill="#fff"/>
          <path id="Path_523" data-name="Path 523" d="M141.375,26.277a11.431,11.431,0,0,1-19.618,8.448,12.618,12.618,0,0,1,.021-16.9,11.642,11.642,0,0,1,16.386-.045A11.771,11.771,0,0,1,141.375,26.277Zm-6.053-.045a6.155,6.155,0,0,0-1.461-4.3,5.584,5.584,0,0,0-7.827-.011,7.181,7.181,0,0,0,0,8.628,4.966,4.966,0,0,0,3.9,1.623,5.035,5.035,0,0,0,3.913-1.618A6.165,6.165,0,0,0,135.321,26.232Z" transform="translate(-60.857 -6.654)" fill="#fff"/>
          <path id="Path_524" data-name="Path 524" d="M145,37.161h-7.1l7.952-11.536L138.6,14.437h7.5l3.6,6.446,3.891-6.446H160.7l-7.388,11.05,8.078,11.676h-7.456l-4.33-7.221Z" transform="translate(-58.77 -6.653)" fill="#fff"/>
        </g>
      </g>
    </g>
  </g>
</svg>
