<svg xmlns="http://www.w3.org/2000/svg" width="267" height="105" viewBox="0 0 267 105">
  <g id="Group_771" data-name="Group 771" transform="translate(-4603 7192)">
    <rect id="Rectangle_27" data-name="Rectangle 27" width="267" height="105" transform="translate(4603 -7192)" fill="#fac401"/>
    <g id="BDL_logo" data-name="BDL logo" transform="translate(4624 -7189)">
      <g id="Group_715" data-name="Group 715" transform="translate(27.456 41.213)">
        <path id="Path_450" data-name="Path 450" d="M48.327,45.75V61.134H27.8v13.51H62.665V49.338Z" transform="translate(-14.871 -20.502)" fill="#fff"/>
        <path id="Path_451" data-name="Path 451" d="M18.9,82.57V51.8L42.317,28.37,66.752,52.8l-.058,17.97L43.334,47.357,33.253,57.438v12.3l12.74,12.769Z" transform="translate(-18.9 -28.37)" fill="#fff"/>
      </g>
      <path id="Path_452" data-name="Path 452" d="M19.655,48.681,0,43.989,13.684,29.36l20.657,4.576Z" transform="translate(0 13.291)" fill="#fff"/>
      <path id="Path_453" data-name="Path 453" d="M13.775,29.728,6.41,10.77l18.943,2.382L34.432,32.27Z" transform="translate(2.902 4.876)" fill="#fff"/>
      <path id="Path_454" data-name="Path 454" d="M26.61,16.575,37.709,0,47.761,16.43,37.883,34.066Z" transform="translate(12.046)" fill="#fff"/>
      <path id="Path_455" data-name="Path 455" d="M50.353,13.265,70.545,11.1,63.732,29.113,43.22,32.208Z" transform="translate(19.565 5.025)" fill="#fff"/>
      <path id="Path_456" data-name="Path 456" d="M66.286,29.36,80.465,43.742,60.49,48.463,46.37,33.805Z" transform="translate(20.991 13.291)" fill="#fff"/>
      <g id="Group_716" data-name="Group 716" transform="translate(142.727 72.083)">
        <path id="Path_457" data-name="Path 457" d="M98.25,49.74h2.063V62.916h5.1v1.409H98.25Z" transform="translate(-98.25 -49.566)" fill="#fff"/>
        <path id="Path_458" data-name="Path 458" d="M117.3,56.985c0,5.462-2.324,7.569-5.259,7.569-3.022,0-5.041-2.571-5.041-7.481,0-4.837,2.165-7.452,5.331-7.452C115.44,49.62,117.3,52.322,117.3,56.985Zm-8.135.1c0,3.007.726,6,3.036,6,2.339,0,2.949-3.181,2.949-6.043,0-2.717-.625-5.956-2.978-5.956C109.891,51.087,109.165,54.123,109.165,57.087Z" transform="translate(-94.289 -49.62)" fill="#fff"/>
        <path id="Path_459" data-name="Path 459" d="M121.2,59.952l-1.206,4.373h-2l4.155-14.585h2.3l4.024,14.585h-2.048l-1.191-4.373Zm3.748-1.336-.944-3.7c-.261-1.031-.508-2.237-.726-3.327h-.087c-.2,1.1-.479,2.353-.726,3.341l-.959,3.69Z" transform="translate(-89.314 -49.566)" fill="#fff"/>
        <path id="Path_460" data-name="Path 460" d="M129.69,64.325V49.74h1.947l3.327,6.842c.755,1.569,1.7,3.5,2.324,5.07h.058c-.16-2.3-.247-4.169-.247-6.7V49.74h1.874V64.325h-1.947l-3.443-7.017a43.21,43.21,0,0,1-2.165-4.954h-.058c.16,1.947.2,3.792.2,6.915v5.055H129.69Z" transform="translate(-84.017 -49.566)" fill="#fff"/>
        <path id="Path_461" data-name="Path 461" d="M141.056,62.429a6.351,6.351,0,0,0,2.6.6c1.9,0,3.036-1,3.036-2.484,0-1.351-.973-2.165-2.4-3.022-1.424-.8-3.414-2.165-3.414-4.038,0-2.208,1.918-3.821,4.808-3.821a5.716,5.716,0,0,1,2.542.537l-.508,1.409a4.528,4.528,0,0,0-2.165-.494c-1.772,0-2.615,1.09-2.615,2.092,0,1.453.944,2.019,2.673,2.993,2.179,1.249,3.152,2.586,3.152,4.2,0,2.528-2.208,4.1-5.084,4.1a7.059,7.059,0,0,1-3.065-.639Z" transform="translate(-79.069 -49.602)" fill="#fff"/>
      </g>
      <g id="Group_717" data-name="Group 717" transform="translate(111.945 49.348)">
        <path id="Path_462" data-name="Path 462" d="M77.06,34.484a20.033,20.033,0,0,1,2.077-.363,17.26,17.26,0,0,1,2.106-.131,12.418,12.418,0,0,1,2.484.247,5.9,5.9,0,0,1,2.077.843,4.276,4.276,0,0,1,1.438,1.569,4.952,4.952,0,0,1,.537,2.426,5.279,5.279,0,0,1-.755,2.963,4.567,4.567,0,0,1-1.947,1.7,6.046,6.046,0,0,1,2.455,1.772,5.123,5.123,0,0,1,.959,3.3,6.333,6.333,0,0,1-.508,2.658,4.5,4.5,0,0,1-1.438,1.758,6.1,6.1,0,0,1-2.223.988,12.4,12.4,0,0,1-2.847.305c-.683,0-1.395-.044-2.121-.116a22.572,22.572,0,0,1-2.3-.349V34.484Zm2.615,8.295h1.8q3.617,0,3.617-3.269a3.947,3.947,0,0,0-.305-1.671,2.6,2.6,0,0,0-.8-1.017,3.05,3.05,0,0,0-1.148-.508,6.091,6.091,0,0,0-1.38-.145c-.291,0-.6.015-.886.029a8.715,8.715,0,0,0-.886.087v6.494Zm0,2.106v7.278c.363.058.726.1,1.09.145a8.808,8.808,0,0,0,1.06.058,6.581,6.581,0,0,0,1.54-.174,3.263,3.263,0,0,0,1.264-.581,2.659,2.659,0,0,0,.843-1.119,4.484,4.484,0,0,0,.305-1.758A3.925,3.925,0,0,0,84.8,45.9a4.049,4.049,0,0,0-3.051-1.017H79.675Z" transform="translate(-77.06 -33.961)" fill="#fff"/>
        <path id="Path_463" data-name="Path 463" d="M89.371,46a12.011,12.011,0,0,0,.2,2.019,5.06,5.06,0,0,0,.567,1.6,2.82,2.82,0,0,0,1.046,1.06,3.345,3.345,0,0,0,1.671.378,4.778,4.778,0,0,0,1.554-.247,6.866,6.866,0,0,0,1.031-.421l.465,2a5.355,5.355,0,0,1-1.264.567,6.51,6.51,0,0,1-2.106.305,5.673,5.673,0,0,1-2.7-.581,4.767,4.767,0,0,1-1.772-1.627,7.131,7.131,0,0,1-.973-2.5,16.789,16.789,0,0,1-.291-3.21c0-2.818.465-4.881,1.395-6.174a4.32,4.32,0,0,1,3.7-1.947,3.872,3.872,0,0,1,3.675,1.947,11.546,11.546,0,0,1,1.075,5.477v.654c0,.218-.015.45-.029.683H89.371Zm2.542-6.639A1.889,1.889,0,0,0,90.1,40.615a9.458,9.458,0,0,0-.683,3.356h4.634a10.473,10.473,0,0,0-.436-3.37A1.688,1.688,0,0,0,91.913,39.365Z" transform="translate(-72.651 -32.494)" fill="#fff"/>
        <path id="Path_464" data-name="Path 464" d="M98.528,38.911h3.85v2.15h-3.85v8.426a3.262,3.262,0,0,0,.567,2.194,1.941,1.941,0,0,0,1.525.625,2.919,2.919,0,0,0,.944-.145,3.812,3.812,0,0,0,.77-.349l.494,2a4.963,4.963,0,0,1-2.542.7,4.1,4.1,0,0,1-3.225-1.206A6.026,6.026,0,0,1,96,49.3V34.786l2.5-.436v4.561Z" transform="translate(-68.486 -33.798)" fill="#fff"/>
        <path id="Path_465" data-name="Path 465" d="M104.968,38.911h3.85v2.15h-3.85v8.426a3.262,3.262,0,0,0,.567,2.194,1.941,1.941,0,0,0,1.525.625A2.919,2.919,0,0,0,108,52.16a3.813,3.813,0,0,0,.77-.349l.494,2a4.963,4.963,0,0,1-2.542.7,4.1,4.1,0,0,1-3.225-1.206,6.026,6.026,0,0,1-1.06-4.009V34.786l2.5-.436v4.561Z" transform="translate(-65.571 -33.798)" fill="#fff"/>
        <path id="Path_466" data-name="Path 466" d="M110.891,46a12.013,12.013,0,0,0,.2,2.019,5.06,5.06,0,0,0,.567,1.6,2.82,2.82,0,0,0,1.046,1.06,3.345,3.345,0,0,0,1.671.378,4.778,4.778,0,0,0,1.554-.247,6.866,6.866,0,0,0,1.031-.421l.465,2a5.354,5.354,0,0,1-1.264.567,6.51,6.51,0,0,1-2.106.305,5.673,5.673,0,0,1-2.7-.581,4.767,4.767,0,0,1-1.772-1.627,7.131,7.131,0,0,1-.973-2.5,16.789,16.789,0,0,1-.291-3.21c0-2.818.465-4.881,1.395-6.174a4.32,4.32,0,0,1,3.7-1.947,3.872,3.872,0,0,1,3.675,1.947,11.546,11.546,0,0,1,1.075,5.477v.654c0,.218-.015.45-.029.683h-7.249Zm2.542-6.639a1.889,1.889,0,0,0-1.816,1.249,9.458,9.458,0,0,0-.683,3.356h4.634a10.473,10.473,0,0,0-.436-3.37A1.688,1.688,0,0,0,113.433,39.365Z" transform="translate(-62.909 -32.494)" fill="#fff"/>
        <path id="Path_467" data-name="Path 467" d="M124.265,39.857a5.12,5.12,0,0,0-2.092-.407,5.3,5.3,0,0,0-2,.378v13.06h-2.5V38.259a10.341,10.341,0,0,1,1.932-.683A9.526,9.526,0,0,1,122,37.3a11.233,11.233,0,0,1,1.395.087,5.383,5.383,0,0,1,1.307.32Z" transform="translate(-58.676 -32.463)" fill="#fff"/>
        <path id="Path_468" data-name="Path 468" d="M141.009,44.284a16.853,16.853,0,0,1-.6,4.794,8.29,8.29,0,0,1-1.714,3.2,6.324,6.324,0,0,1-2.717,1.772,10.867,10.867,0,0,1-3.545.552,18.327,18.327,0,0,1-4.2-.523V34.493c.741-.16,1.453-.276,2.15-.378a13.862,13.862,0,0,1,2-.145,10.984,10.984,0,0,1,3.574.552,6.55,6.55,0,0,1,2.717,1.772,7.9,7.9,0,0,1,1.714,3.2A16.881,16.881,0,0,1,141.009,44.284Zm-2.789,0a17.821,17.821,0,0,0-.32-3.675,6.835,6.835,0,0,0-.988-2.484,3.765,3.765,0,0,0-1.758-1.395,7.011,7.011,0,0,0-2.6-.436c-.276,0-.537.015-.814.029s-.552.044-.843.087V52.143c.291.044.567.073.843.087s.537.029.784.029a6.932,6.932,0,0,0,2.615-.436,3.924,3.924,0,0,0,1.758-1.38,6.555,6.555,0,0,0,1-2.47A18.839,18.839,0,0,0,138.22,44.284Z" transform="translate(-53.891 -33.97)" fill="#fff"/>
        <path id="Path_469" data-name="Path 469" d="M140.163,37.937a9.754,9.754,0,0,1,1.6-.508,8.05,8.05,0,0,1,1.83-.189,4.536,4.536,0,0,1,3.327,1.264,5.342,5.342,0,0,1,1.278,3.951v10.14a20.646,20.646,0,0,1-2.135.465,13.5,13.5,0,0,1-2.135.174,7.11,7.11,0,0,1-1.961-.261,4.1,4.1,0,0,1-2.687-2.31,5.14,5.14,0,0,1-.407-2.165,5.312,5.312,0,0,1,.363-2.077,4.174,4.174,0,0,1,1-1.482,4.27,4.27,0,0,1,1.511-.9,5.658,5.658,0,0,1,1.889-.305,10.493,10.493,0,0,1,2.121.232V42.571A3.37,3.37,0,0,0,145.1,40.2a2.485,2.485,0,0,0-1.874-.668,5.819,5.819,0,0,0-1.264.131,7.158,7.158,0,0,0-1.264.421Zm1.191,10.518a2.534,2.534,0,0,0,.7,1.976,2.859,2.859,0,0,0,1.976.639,8.313,8.313,0,0,0,1.714-.2V46a6.484,6.484,0,0,0-1.714-.232,4.045,4.045,0,0,0-1.046.131,2.179,2.179,0,0,0-.857.436,1.957,1.957,0,0,0-.567.814A3.744,3.744,0,0,0,141.354,48.455Z" transform="translate(-49.079 -32.49)" fill="#fff"/>
        <path id="Path_470" data-name="Path 470" d="M152.327,49.615c.567-1.947,1.075-3.893,1.54-5.854s.915-4.053,1.336-6.261h2.484c-.291,1.424-.61,2.818-.944,4.2s-.683,2.717-1.046,3.995-.712,2.484-1.075,3.632-.7,2.165-1,3.109c-.363,1.09-.726,2-1.06,2.76a7.385,7.385,0,0,1-1.1,1.8,3.756,3.756,0,0,1-1.307.988,4.183,4.183,0,0,1-1.671.305,4.3,4.3,0,0,1-1.046-.131,5.661,5.661,0,0,1-.872-.276l.465-2.034a3.631,3.631,0,0,0,1.424.32,1.706,1.706,0,0,0,1.366-.61,6.5,6.5,0,0,0,1.017-1.83l.291-.726c-.363-1.017-.741-2.135-1.119-3.37s-.755-2.528-1.1-3.864-.712-2.717-1.031-4.126-.639-2.789-.9-4.126h2.658c.16.915.334,1.918.552,3.007s.436,2.179.683,3.269.494,2.135.741,3.167S152.095,48.831,152.327,49.615Z" transform="translate(-45.598 -32.372)" fill="#fff"/>
      </g>
    </g>
  </g>
</svg>
