<svg id="BDL_logo" data-name="BDL logo" xmlns="http://www.w3.org/2000/svg" width="187.78" height="79.973" viewBox="0 0 187.78 79.973">
  <g id="Group_715" data-name="Group 715" transform="translate(23.013 34.544)">
    <path id="Path_450" data-name="Path 450" d="M45,45.75V58.645H27.8V69.968H57.023V48.758Z" transform="translate(-16.963 -24.588)" fill="#fff"/>
    <path id="Path_451" data-name="Path 451" d="M18.9,73.8V48.01L38.528,28.37l20.48,20.48-.049,15.062L39.38,44.284l-8.45,8.45V63.048l10.678,10.7Z" transform="translate(-18.9 -28.37)" fill="#fff"/>
  </g>
  <path id="Path_452" data-name="Path 452" d="M16.474,45.554,0,41.621,11.47,29.36,28.784,33.2Z" transform="translate(0 6.389)" fill="#fff"/>
  <path id="Path_453" data-name="Path 453" d="M12.583,26.66,6.41,10.77l15.878,2L29.9,28.791Z" transform="translate(1.395 2.344)" fill="#fff"/>
  <path id="Path_454" data-name="Path 454" d="M26.61,13.893,35.913,0l8.426,13.771-8.28,14.782Z" transform="translate(5.791)" fill="#fff"/>
  <path id="Path_455" data-name="Path 455" d="M49.2,12.914,66.123,11.1,60.413,26.2,43.22,28.792Z" transform="translate(9.405 2.415)" fill="#fff"/>
  <path id="Path_456" data-name="Path 456" d="M63.063,29.36,74.947,41.414,58.205,45.372,46.37,33.086Z" transform="translate(10.091 6.389)" fill="#fff"/>
  <g id="Group_716" data-name="Group 716" transform="translate(119.63 60.418)">
    <path id="Path_457" data-name="Path 457" d="M98.25,49.74h1.729V60.784h4.274v1.181h-6Z" transform="translate(-98.25 -49.594)" fill="#fff"/>
    <path id="Path_458" data-name="Path 458" d="M115.633,55.793c0,4.578-1.948,6.344-4.408,6.344-2.533,0-4.225-2.155-4.225-6.271,0-4.055,1.814-6.246,4.469-6.246C114.074,49.62,115.633,51.885,115.633,55.793Zm-6.819.085c0,2.52.609,5.029,2.545,5.029,1.96,0,2.472-2.667,2.472-5.065,0-2.277-.524-4.992-2.5-4.992C109.423,50.85,108.814,53.395,108.814,55.879Z" transform="translate(-96.346 -49.62)" fill="#fff"/>
    <path id="Path_459" data-name="Path 459" d="M120.681,58.3l-1.011,3.665h-1.68l3.482-12.225H123.4l3.373,12.225h-1.717l-1-3.665Zm3.141-1.12-.791-3.1c-.219-.865-.426-1.875-.609-2.788h-.073c-.17.925-.4,1.973-.609,2.8l-.8,3.093Z" transform="translate(-93.954 -49.594)" fill="#fff"/>
    <path id="Path_460" data-name="Path 460" d="M129.69,61.965V49.74h1.632l2.788,5.735c.633,1.315,1.425,2.934,1.948,4.249h.049c-.134-1.924-.207-3.495-.207-5.613V49.74h1.571V61.965h-1.632l-2.886-5.881a36.219,36.219,0,0,1-1.814-4.152h-.049c.134,1.632.17,3.178.17,5.8v4.237H129.69Z" transform="translate(-91.408 -49.594)" fill="#fff"/>
    <path id="Path_461" data-name="Path 461" d="M140.985,60.363a5.323,5.323,0,0,0,2.18.5c1.6,0,2.545-.84,2.545-2.082,0-1.132-.816-1.814-2.009-2.533-1.193-.67-2.861-1.814-2.861-3.385,0-1.851,1.607-3.2,4.03-3.2a4.791,4.791,0,0,1,2.131.451l-.426,1.181a3.8,3.8,0,0,0-1.814-.414c-1.485,0-2.192.913-2.192,1.753,0,1.218.791,1.692,2.24,2.508,1.826,1.047,2.642,2.167,2.642,3.519,0,2.119-1.851,3.434-4.262,3.434a5.917,5.917,0,0,1-2.569-.536Z" transform="translate(-89.03 -49.611)" fill="#fff"/>
  </g>
  <g id="Group_717" data-name="Group 717" transform="translate(93.829 41.362)">
    <path id="Path_462" data-name="Path 462" d="M77.06,34.4a16.791,16.791,0,0,1,1.741-.3,14.467,14.467,0,0,1,1.766-.11,10.408,10.408,0,0,1,2.082.207,4.944,4.944,0,0,1,1.741.706A3.584,3.584,0,0,1,85.6,36.218a4.15,4.15,0,0,1,.451,2.033,4.425,4.425,0,0,1-.633,2.484,3.828,3.828,0,0,1-1.632,1.425,5.068,5.068,0,0,1,2.058,1.485,4.294,4.294,0,0,1,.8,2.764,5.309,5.309,0,0,1-.426,2.228,3.771,3.771,0,0,1-1.205,1.473,5.114,5.114,0,0,1-1.863.828,10.4,10.4,0,0,1-2.387.256c-.572,0-1.169-.037-1.778-.1a18.921,18.921,0,0,1-1.924-.292V34.4Zm2.192,6.953h1.51q3.032,0,3.032-2.74a3.308,3.308,0,0,0-.256-1.4,2.182,2.182,0,0,0-.67-.852,2.556,2.556,0,0,0-.962-.426,5.106,5.106,0,0,0-1.157-.122c-.244,0-.5.012-.743.024a7.3,7.3,0,0,0-.743.073v5.443Zm0,1.766v6.1c.3.049.609.085.913.122a7.382,7.382,0,0,0,.889.049,5.516,5.516,0,0,0,1.291-.146A2.735,2.735,0,0,0,83.4,48.76a2.228,2.228,0,0,0,.706-.938,3.758,3.758,0,0,0,.256-1.473,3.289,3.289,0,0,0-.816-2.374,3.394,3.394,0,0,0-2.557-.852H79.252Z" transform="translate(-77.06 -33.966)" fill="#fff"/>
    <path id="Path_463" data-name="Path 463" d="M88.955,44.584a10.068,10.068,0,0,0,.17,1.692,4.241,4.241,0,0,0,.475,1.339,2.364,2.364,0,0,0,.877.889,2.8,2.8,0,0,0,1.4.317,4,4,0,0,0,1.3-.207,5.755,5.755,0,0,0,.865-.353l.39,1.68a4.488,4.488,0,0,1-1.059.475,5.457,5.457,0,0,1-1.766.256,4.755,4.755,0,0,1-2.265-.487,4,4,0,0,1-1.485-1.364,5.977,5.977,0,0,1-.816-2.094,14.072,14.072,0,0,1-.244-2.691,9,9,0,0,1,1.169-5.175,3.621,3.621,0,0,1,3.1-1.632,3.245,3.245,0,0,1,3.081,1.632,9.678,9.678,0,0,1,.9,4.59V44c0,.183-.012.377-.024.572H88.955Zm2.131-5.564a1.583,1.583,0,0,0-1.522,1.047,7.928,7.928,0,0,0-.572,2.813h3.884a8.778,8.778,0,0,0-.365-2.825A1.415,1.415,0,0,0,91.086,39.02Z" transform="translate(-74.94 -33.261)" fill="#fff"/>
    <path id="Path_464" data-name="Path 464" d="M98.119,38.173h3.227v1.8H98.119v7.062a2.734,2.734,0,0,0,.475,1.839,1.627,1.627,0,0,0,1.279.524,2.446,2.446,0,0,0,.791-.122,3.2,3.2,0,0,0,.645-.292l.414,1.68a4.16,4.16,0,0,1-2.131.584,3.438,3.438,0,0,1-2.7-1.011A5.051,5.051,0,0,1,96,46.879V34.715l2.094-.365v3.823Z" transform="translate(-72.938 -33.887)" fill="#fff"/>
    <path id="Path_465" data-name="Path 465" d="M104.559,38.173h3.227v1.8h-3.227v7.062a2.734,2.734,0,0,0,.475,1.839,1.627,1.627,0,0,0,1.278.524,2.447,2.447,0,0,0,.791-.122,3.2,3.2,0,0,0,.645-.292l.414,1.68a4.16,4.16,0,0,1-2.131.584,3.438,3.438,0,0,1-2.7-1.011,5.051,5.051,0,0,1-.889-3.361V34.715l2.094-.365v3.823Z" transform="translate(-71.537 -33.887)" fill="#fff"/>
    <path id="Path_466" data-name="Path 466" d="M110.475,44.584a10.067,10.067,0,0,0,.17,1.692,4.241,4.241,0,0,0,.475,1.339,2.364,2.364,0,0,0,.877.889,2.8,2.8,0,0,0,1.4.317,4,4,0,0,0,1.3-.207,5.755,5.755,0,0,0,.865-.353l.39,1.68a4.488,4.488,0,0,1-1.059.475,5.457,5.457,0,0,1-1.766.256,4.755,4.755,0,0,1-2.265-.487,4,4,0,0,1-1.485-1.364,5.977,5.977,0,0,1-.816-2.094,14.073,14.073,0,0,1-.244-2.691,9,9,0,0,1,1.169-5.175,3.621,3.621,0,0,1,3.1-1.632,3.245,3.245,0,0,1,3.081,1.632,9.678,9.678,0,0,1,.9,4.59V44c0,.183-.012.377-.024.572h-6.076Zm2.131-5.564a1.583,1.583,0,0,0-1.522,1.047,7.927,7.927,0,0,0-.572,2.813H114.4a8.778,8.778,0,0,0-.365-2.825A1.415,1.415,0,0,0,112.606,39.02Z" transform="translate(-70.257 -33.261)" fill="#fff"/>
    <path id="Path_467" data-name="Path 467" d="M123.2,39.443a4.291,4.291,0,0,0-1.753-.341,4.44,4.44,0,0,0-1.68.317V50.365H117.67V38.1a8.667,8.667,0,0,1,1.619-.572A7.985,7.985,0,0,1,121.3,37.3a9.416,9.416,0,0,1,1.169.073,4.512,4.512,0,0,1,1.1.268Z" transform="translate(-68.223 -33.245)" fill="#fff"/>
    <path id="Path_468" data-name="Path 468" d="M138.943,42.615a14.125,14.125,0,0,1-.5,4.018,6.948,6.948,0,0,1-1.437,2.679A5.3,5.3,0,0,1,134.73,50.8a9.108,9.108,0,0,1-2.971.463,15.361,15.361,0,0,1-3.519-.438V34.408c.621-.134,1.218-.231,1.8-.317a11.618,11.618,0,0,1,1.68-.122,9.206,9.206,0,0,1,3,.463,5.49,5.49,0,0,1,2.277,1.485,6.625,6.625,0,0,1,1.437,2.679A14.149,14.149,0,0,1,138.943,42.615Zm-2.338,0a14.937,14.937,0,0,0-.268-3.081,5.729,5.729,0,0,0-.828-2.082,3.156,3.156,0,0,0-1.473-1.169,5.876,5.876,0,0,0-2.18-.365c-.231,0-.451.012-.682.024s-.463.037-.706.073V49.2c.244.037.475.061.706.073s.451.024.657.024a5.81,5.81,0,0,0,2.192-.365,3.289,3.289,0,0,0,1.473-1.157,5.494,5.494,0,0,0,.84-2.07A15.79,15.79,0,0,0,136.6,42.615Z" transform="translate(-65.923 -33.97)" fill="#fff"/>
    <path id="Path_469" data-name="Path 469" d="M139.954,37.824a8.176,8.176,0,0,1,1.339-.426,6.747,6.747,0,0,1,1.534-.158,3.8,3.8,0,0,1,2.788,1.059,4.477,4.477,0,0,1,1.072,3.312v8.5a17.306,17.306,0,0,1-1.79.39,11.32,11.32,0,0,1-1.79.146,5.959,5.959,0,0,1-1.644-.219,3.437,3.437,0,0,1-2.253-1.936,4.308,4.308,0,0,1-.341-1.814,4.453,4.453,0,0,1,.3-1.741,3.5,3.5,0,0,1,.84-1.242,3.579,3.579,0,0,1,1.266-.755,4.743,4.743,0,0,1,1.583-.256,8.8,8.8,0,0,1,1.778.195V41.709a2.825,2.825,0,0,0-.548-1.985,2.083,2.083,0,0,0-1.571-.56,4.877,4.877,0,0,0-1.059.11,6,6,0,0,0-1.059.353Zm1,8.816a2.124,2.124,0,0,0,.584,1.656,2.4,2.4,0,0,0,1.656.536,6.968,6.968,0,0,0,1.437-.17V44.582a5.435,5.435,0,0,0-1.437-.195,3.391,3.391,0,0,0-.877.11,1.827,1.827,0,0,0-.718.365,1.64,1.64,0,0,0-.475.682A3.138,3.138,0,0,0,140.952,46.64Z" transform="translate(-63.609 -33.258)" fill="#fff"/>
    <path id="Path_470" data-name="Path 470" d="M151.394,47.655c.475-1.632.9-3.263,1.291-4.907s.767-3.4,1.12-5.248h2.082c-.244,1.193-.511,2.362-.791,3.519s-.572,2.277-.877,3.348-.6,2.082-.9,3.044-.584,1.814-.84,2.606c-.3.913-.609,1.68-.889,2.313a6.189,6.189,0,0,1-.925,1.51,3.148,3.148,0,0,1-1.1.828,3.507,3.507,0,0,1-1.4.256,3.6,3.6,0,0,1-.877-.11,4.744,4.744,0,0,1-.731-.231l.39-1.7a3.044,3.044,0,0,0,1.193.268,1.43,1.43,0,0,0,1.145-.511,5.449,5.449,0,0,0,.852-1.534l.244-.609c-.3-.852-.621-1.79-.938-2.825s-.633-2.119-.925-3.239-.6-2.277-.865-3.458-.536-2.338-.755-3.458h2.228c.134.767.28,1.607.463,2.52s.365,1.826.572,2.74.414,1.79.621,2.654S151.2,47,151.394,47.655Z" transform="translate(-61.936 -33.202)" fill="#fff"/>
  </g>
</svg>
