<svg xmlns="http://www.w3.org/2000/svg" width="189.588" height="53.47" viewBox="0 0 189.588 53.47">
  <g id="Group_728" data-name="Group 728" transform="translate(-40.305 -657.053)">
    <g id="Group_724" data-name="Group 724" transform="translate(98.46 664.382)">
      <path id="Path_482" data-name="Path 482" d="M427.842,705.86h15.894v5.12h-9.4V716.6h8.9v5.349h-8.864v11.5h-6.533V705.86m17.5-.306v4.738h6.3v-4.776Zm0,7.008v20.883h6.3v-20.9Zm15.283,2.429v-2.445l-6.3.016v20.883h6.3V720.531c0-3.591,5.807-2.674,5.807-2.674V711.9C461.541,711.9,460.624,714.991,460.624,714.991Zm16.448,3.477h5.578s.42-6.266-5.578-6.266h-3.744s-6.266-.229-6.266,5.922,5.884,6.037,8.482,7.642,1.49,4.394.191,4.394-3.324.382-3.324-3.286h-5.349V728.9s.115,5.082,6.686,5.082a12.128,12.128,0,0,0,6.367-1.512,5.32,5.32,0,0,0,2.434-2.892,16.13,16.13,0,0,0-.12-4.991,4.888,4.888,0,0,0-1.091-1.754,6.547,6.547,0,0,0-3.174-1.712c-4.378-1.086-5.524-2.347-5.295-4.066S477.072,714.571,477.072,718.468Zm8.463-12.15v6.151h-2.56v4.394h2.56v13.143s-.306,3.553,4.088,3.553H494.7v-4.126h-1.49a1.323,1.323,0,0,1-1.49-1.49V716.787h2.98v-4.356h-2.866v-6.113Z" transform="translate(-427.387 -705.516)" fill="#fff"/>
      <path id="Path_483" data-name="Path 483" d="M881.568,706.779h3.439v24.682H896.2v3.171H881.568Zm29.954,13.812v6.954a7.415,7.415,0,0,1-7.393,7.393h0a7.415,7.415,0,0,1-7.393-7.393v-6.954a7.415,7.415,0,0,1,7.393-7.393h0A7.415,7.415,0,0,1,911.522,720.591Zm-3.334-1.033a3.948,3.948,0,0,0-4.06-3.8h0a3.948,3.948,0,0,0-4.06,3.8v9.182a3.948,3.948,0,0,0,4.06,3.8h0a3.948,3.948,0,0,0,4.06-3.8Zm21.921-5.844v20.832h3.3v-15.13a4.169,4.169,0,0,1,4.04-3.439c3.439,0,3.009,3.5,3.009,3.5v15.073h3.467V718.385s.315-5.185-4.3-5.185h-2.063c-.114,0-.227-.009-.342,0a4.6,4.6,0,0,0-.857.111,4.232,4.232,0,0,0-1.108.415,3.778,3.778,0,0,0-1.1.908,4.086,4.086,0,0,0-.79,1.522h-.153v-2.426Zm-1.566,18.607v2.464h-2.98c-1.91,0-1.891-2.713-1.891-2.713h-.227s-.957,2.9-5.7,2.865-4.776-4.7-4.776-4.7v-2.98s.153-3.324,5.693-4.508,4.738-2.827,4.738-2.827V717.84s0-2.082-3.515-2.082-3.248,4.165-3.248,4.165h-3.209a15.268,15.268,0,0,1,.212-2.219,7,7,0,0,1,.561-1.663,4.958,4.958,0,0,1,2.244-2.279c1.652-.808,3.543-.507,5.313-.506,4.965,0,4.908,5.139,4.908,5.139v12.723c0,1.165.669,1.2.669,1.2Zm-5.29-9.007c0,.2-.9.6-1.057.682a13.239,13.239,0,0,1-1.369.58,12.437,12.437,0,0,0-2.925,1.034,3.643,3.643,0,0,0-1.5,1.84c-.414,1.342-.367,3.731,1.06,4.466a5.906,5.906,0,0,0,2.694.51c3.009,0,3.095-3.095,3.095-3.095Z" transform="translate(-812.493 -706.588)" fill="#fff"/>
      <path id="Path_484" data-name="Path 484" d="M1141.979,920.8h-1.968v-2.407h1.968Zm4.088-4.279h1.817v-.86a1.793,1.793,0,0,0-1.9-1.815h-.93s-2.175-.173-2.175,2.416v3.01s.109,1.528,2.132,1.528h1.265s1.748-.669,1.748-1.748v-1.079h-1.92v.8s.038.688-.382.688a2.12,2.12,0,0,0-.535.038.55.55,0,0,1-.544-.544V915.93a.732.732,0,0,1,.731-.731c.712,0,.693.578.693.578v.745Zm7.433-.86v2.311h0v.06h0c0,.1,0,.352-.009,1.019-.01,1.079-1.6,1.748-1.6,1.748h-1.265c-2.023,0-2.132-1.528-2.132-1.528v-3.01c0-2.589,2.175-2.416,2.175-2.416h.93A1.793,1.793,0,0,1,1153.5,915.663Zm-1.778,3.114v-.742h0v-2.257s-.017-.578-.728-.578a.732.732,0,0,0-.731.731v3.028a.55.55,0,0,0,.544.544,2.119,2.119,0,0,1,.535-.038C1151.76,919.464,1151.721,918.776,1151.721,918.776Zm8.386-5.6-5.712.8v6.686h2.063v-4.719a.612.612,0,0,1,1.223-.038v4.757h2.025v-4.719s.1-.64.64-.64.6.315.6.6v4.757h1.912v-5.712a1.2,1.2,0,0,0-1.053-1.053c-1.222-.122-1.833.1-2.12.8.021-.052-.111-.262-.14-.314a1.374,1.374,0,0,0-.217-.3.83.83,0,0,0-.647-.248c-.417,0-.834,0-1.25,0a1.1,1.1,0,0,0-.975.82v-.82H1154.4Z" transform="translate(-1031.85 -881.773)" fill="#fff"/>
      <path id="Path_485" data-name="Path 485" d="M527.033,936.651H425.588a.756.756,0,1,1,0-1.512H527.033a.756.756,0,1,1,0,1.512Z" transform="translate(-424.832 -900.412)" fill="#fff"/>
    </g>
    <g id="Group_726" data-name="Group 726" transform="translate(40.305 657.053)">
      <g id="Group_725" data-name="Group 725">
        <path id="Path_486" data-name="Path 486" d="M65.827,673.82H55.206L57.04,665.8c13.9,0,15.913-8.109,15.915-8.12a26.884,26.884,0,0,0-14.746,51.6Z" transform="translate(-40.305 -657.053)" fill="#fff"/>
        <path id="Path_487" data-name="Path 487" d="M254.473,684.607l-10.448,49.3a26.882,26.882,0,0,0,10.448-49.3Z" transform="translate(-213.214 -680.44)" fill="#fff"/>
      </g>
      <path id="Path_488" data-name="Path 488" d="M254.416,684.607l-10.392,49.3s.8-.1,1.84-.336l10.081-47.924s-.62-.443-.828-.585C254.942,684.947,254.416,684.607,254.416,684.607Z" transform="translate(-213.214 -680.44)" fill="#fff"/>
    </g>
  </g>
</svg>
