<svg xmlns="http://www.w3.org/2000/svg" width="232.412" height="65.548" viewBox="0 0 232.412 65.548">
  <g id="Group_728" data-name="Group 728" transform="translate(-40.305 -657.053)">
    <g id="Group_724" data-name="Group 724" transform="translate(111.595 666.038)">
      <path id="Path_482" data-name="Path 482" d="M427.842,705.937h19.484v6.276H435.8V719.1h10.913v6.557H435.851v14.1h-8.009V705.937m21.451-.375v5.808h7.728v-5.855Zm0,8.591v25.6h7.728v-25.62Zm18.735,2.978v-3l-7.728.02v25.6h7.728V723.923c0-4.4,7.119-3.279,7.119-3.279v-7.307C469.152,713.338,468.028,717.131,468.028,717.131Zm20.163,4.262h6.838s.515-7.681-6.838-7.681H483.6s-7.681-.281-7.681,7.26,7.213,7.4,10.4,9.368,1.827,5.386.234,5.386-4.075.468-4.075-4.028H475.92v2.482s.141,6.229,8.2,6.229a14.867,14.867,0,0,0,7.806-1.853,6.522,6.522,0,0,0,2.983-3.545,19.772,19.772,0,0,0-.147-6.118,5.992,5.992,0,0,0-1.338-2.15,8.026,8.026,0,0,0-3.891-2.1c-5.367-1.331-6.772-2.877-6.491-4.984S488.192,716.616,488.192,721.394ZM498.566,706.5v7.541h-3.138v5.386h3.138v16.112s-.375,4.356,5.011,4.356h6.229v-5.058h-1.827a1.621,1.621,0,0,1-1.827-1.827V719.333h3.653v-5.339h-3.513V706.5Z" transform="translate(-427.284 -705.516)" fill="#fff"/>
      <path id="Path_483" data-name="Path 483" d="M881.568,706.779h4.215v30.257h13.723v3.887H881.568Zm36.721,16.932v8.524a9.09,9.09,0,0,1-9.063,9.063h0a9.09,9.09,0,0,1-9.063-9.063v-8.524a9.09,9.09,0,0,1,9.063-9.063h0A9.09,9.09,0,0,1,918.289,723.711Zm-4.087-1.266a4.84,4.84,0,0,0-4.976-4.659h0a4.84,4.84,0,0,0-4.976,4.659V733.7a4.84,4.84,0,0,0,4.976,4.659h0A4.84,4.84,0,0,0,914.2,733.7Zm26.873-7.164v25.538h4.04V722.27s.738-4.215,4.953-4.215,3.688,4.286,3.688,4.286v18.477h4.25V721.006s.386-6.356-5.269-6.356h-2.529c-.14,0-.279-.011-.419-.006a5.635,5.635,0,0,0-1.05.136,5.19,5.19,0,0,0-1.359.508,4.629,4.629,0,0,0-1.343,1.113,5.009,5.009,0,0,0-.969,1.865h-.187v-2.974Zm-1.92,22.81v3.021H935.5c-2.342,0-2.319-3.325-2.319-3.325H932.9s-1.174,3.56-6.981,3.513-5.855-5.761-5.855-5.761v-3.653s.187-4.075,6.979-5.527,5.808-3.466,5.808-3.466v-2.553s0-2.553-4.309-2.553-3.981,5.105-3.981,5.105H920.63a18.725,18.725,0,0,1,.26-2.72,8.58,8.58,0,0,1,.688-2.038,6.077,6.077,0,0,1,2.751-2.794c2.025-.991,4.343-.621,6.513-.62,6.087,0,6.016,6.3,6.016,6.3v15.6c0,1.429.82,1.475.82,1.475Zm-6.485-11.042c0,.25-1.1.74-1.3.836a16.215,16.215,0,0,1-1.678.711c-1.172.432-2.554.548-3.586,1.267a4.465,4.465,0,0,0-1.835,2.256c-.507,1.646-.45,4.573,1.3,5.475a7.242,7.242,0,0,0,3.3.625c3.688,0,3.794-3.794,3.794-3.794Z" transform="translate(-796.89 -706.545)" fill="#fff"/>
      <path id="Path_484" data-name="Path 484" d="M1142.423,922.523h-2.412v-2.951h2.412Zm5.012-5.246h2.227v-1.054a2.2,2.2,0,0,0-2.327-2.225h-1.14s-2.666-.213-2.666,2.961v3.69s.133,1.873,2.613,1.873h1.551s2.143-.82,2.143-2.143v-1.323h-2.354v.984s.047.843-.468.843a2.6,2.6,0,0,0-.656.047.674.674,0,0,1-.667-.667v-3.712a.9.9,0,0,1,.9-.9c.872,0,.849.708.849.708v.913Zm9.112-1.054v2.834h0v.074h0c0,.119,0,.431-.011,1.249-.012,1.323-1.957,2.143-1.957,2.143h-1.551c-2.48,0-2.614-1.873-2.614-1.873v-3.69c0-3.174,2.666-2.961,2.666-2.961h1.14A2.2,2.2,0,0,1,1156.547,916.223Zm-2.18,3.817v-.909h0v-2.767s-.02-.708-.893-.708a.9.9,0,0,0-.9.9v3.712a.674.674,0,0,0,.667.667,2.6,2.6,0,0,1,.656-.047C1154.413,920.884,1154.367,920.041,1154.367,920.041Zm10.281-6.862-7,.984v8.2h2.529v-5.784a.751.751,0,0,1,1.5-.047v5.831h2.482v-5.784s.117-.785.785-.785.738.386.738.738v5.831h2.344v-7a1.469,1.469,0,0,0-1.291-1.29c-1.5-.15-2.248.12-2.6.986.026-.064-.136-.321-.171-.385a1.678,1.678,0,0,0-.266-.368,1.017,1.017,0,0,0-.793-.3c-.511.006-1.022,0-1.533,0a1.351,1.351,0,0,0-1.195,1.005V914h-2.529Z" transform="translate(-1007.419 -874.679)" fill="#fff"/>
      <path id="Path_485" data-name="Path 485" d="M550.118,936.993H425.759a.927.927,0,1,1,0-1.854H550.118a.927.927,0,1,1,0,1.854Z" transform="translate(-424.832 -892.568)" fill="#fff"/>
    </g>
    <g id="Group_726" data-name="Group 726" transform="translate(40.305 657.053)">
      <g id="Group_725" data-name="Group 725">
        <path id="Path_486" data-name="Path 486" d="M71.592,677.607H58.572l2.248-9.836c17.038,0,19.507-9.941,19.51-9.954a32.956,32.956,0,0,0-18.076,63.252Z" transform="translate(-40.305 -657.053)" fill="#fff"/>
        <path id="Path_487" data-name="Path 487" d="M256.833,684.607l-12.809,60.44a32.954,32.954,0,0,0,12.809-60.44Z" transform="translate(-206.255 -679.499)" fill="#fff"/>
      </g>
      <path id="Path_488" data-name="Path 488" d="M256.764,684.607l-12.74,60.44s.98-.121,2.256-.412l12.357-58.748s-.76-.543-1.015-.718C257.409,685.023,256.764,684.607,256.764,684.607Z" transform="translate(-206.255 -679.499)" fill="#fff"/>
    </g>
  </g>
</svg>
