<svg xmlns="http://www.w3.org/2000/svg" width="266.876" height="43.233" viewBox="0 0 266.876 43.233">
  <g id="Group_25" data-name="Group 25" transform="translate(-63.441 -682.384)">
    <g id="Group_3" data-name="Group 3" transform="translate(63.441 682.384)">
      <path id="Path_1" data-name="Path 1" d="M199.644,756.588l6.633-3.618L184.369,742.92l7.436,22.711L196.026,760l8.039,8.843,3.819-3.618Z" transform="translate(-149.8 -725.615)" fill="#fff"/>
      <path id="Path_2" data-name="Path 2" d="M88.162,698.684s-17.285-13.868-24.721-14.672l24.922,22.309s20.1-25.525,44.418-22.51C132.781,683.811,113.486,675.571,88.162,698.684Z" transform="translate(-63.441 -682.384)" fill="#fff"/>
      <g id="Group_2" data-name="Group 2" transform="translate(0 1.227)">
        <g id="Group_1" data-name="Group 1">
          <path id="Path_3" data-name="Path 3" d="M67.662,723.495V700.922l-4.221-3.5v30.291h38.01l-1.461-4.221Z" transform="translate(-63.441 -694.352)" fill="#fff"/>
          <path id="Path_4" data-name="Path 4" d="M90.5,690.9H113.77c1.99-1.063,5.605-2.95,8.51-4.221H83.429Z" transform="translate(-77.715 -686.675)" fill="#fff"/>
          <path id="Path_5" data-name="Path 5" d="M225.85,707.282v12l4.221,2.046V705.334Z" transform="translate(-179.423 -700)" fill="#fff"/>
        </g>
      </g>
    </g>
    <g id="Group_22" data-name="Group 22" transform="translate(130.332 689.742)">
      <g id="Group_6" data-name="Group 6" transform="translate(0 0.069)">
        <g id="Group_5" data-name="Group 5">
          <g id="Group_4" data-name="Group 4">
            <path id="Path_6" data-name="Path 6" d="M297.432,736V708.366h5.678V736Z" transform="translate(-297.432 -708.366)" fill="#fff"/>
            <path id="Path_7" data-name="Path 7" d="M330.359,753.558V733.666h5.061v3.122a9.823,9.823,0,0,1,3-2.869,7.706,7.706,0,0,1,7.038-.142,5.477,5.477,0,0,1,2.222,2.382,6.933,6.933,0,0,1,.571,1.876,22.232,22.232,0,0,1,.172,3.275v12.247h-5.17v-9.834q0-3.67-.762-4.846a2.872,2.872,0,0,0-2.612-1.176,4,4,0,0,0-1.968.5,4.227,4.227,0,0,0-1.5,1.409,4.85,4.85,0,0,0-.68,1.622,13.522,13.522,0,0,0-.209,2.778v9.55Z" transform="translate(-320.946 -725.956)" fill="#fff"/>
            <path id="Path_8" data-name="Path 8" d="M422.127,719.914c-6.2-8.168-13.823-1.972-13.823-1.972l.256-9.576h-5.393v27.475h5.472L408.6,734c.766,1.1,2.262,2.535,6.681,2.535a8,8,0,0,0,6.185-2.56,9.659,9.659,0,0,0,2.352-6.8C423.816,724.243,423.487,721.708,422.127,719.914Zm-8.872,12.393a5,5,0,0,1-2.7-.8,4.087,4.087,0,0,1-.96-.721,3.784,3.784,0,0,1-.532-.668,6.661,6.661,0,0,1-1.3-4.011c0-3.422,2.459-6.2,5.492-6.2s5.492,2.774,5.492,6.2S416.288,732.306,413.255,732.306Z" transform="translate(-372.94 -708.366)" fill="#fff"/>
            <path id="Path_9" data-name="Path 9" d="M500.6,743.71a10.617,10.617,0,0,1-2.918,7.643,10.545,10.545,0,0,1-14.834,0,11.416,11.416,0,0,1,.019-15.287,10.533,10.533,0,0,1,14.824-.041A10.646,10.646,0,0,1,500.6,743.71Zm-5.476-.041a5.566,5.566,0,0,0-1.322-3.893,5.052,5.052,0,0,0-7.082-.01,6.5,6.5,0,0,0,0,7.806,4.489,4.489,0,0,0,3.531,1.463,4.554,4.554,0,0,0,3.541-1.463A5.577,5.577,0,0,0,495.119,743.669Z" transform="translate(-427.75 -725.956)" fill="#fff"/>
            <path id="Path_10" data-name="Path 10" d="M554.3,753.558h-6.421l7.194-10.437L548.5,733h6.783l3.254,5.832L562.059,733H568.5l-6.684,10,7.308,10.563h-6.745l-3.917-6.533Z" transform="translate(-476.282 -725.956)" fill="#fff"/>
          </g>
        </g>
      </g>
      <g id="Group_21" data-name="Group 21" transform="translate(95.148 0)">
        <g id="Group_20" data-name="Group 20">
          <g id="Group_17" data-name="Group 17" transform="translate(27.68)">
            <g id="Group_8" data-name="Group 8" transform="translate(0 7.246)">
              <g id="Group_7" data-name="Group 7">
                <path id="Path_11" data-name="Path 11" d="M731.526,736.29a4.3,4.3,0,0,1,6.2-2.253L736.6,737.98c-.387-.164-3.1-.845-3.943,1.408a18.982,18.982,0,0,0-.385,5.093V753.5H727.1V734.1l4.428-.061Z" transform="translate(-727.098 -733.474)" fill="#fff"/>
              </g>
            </g>
            <g id="Group_10" data-name="Group 10" transform="translate(12.353 7.246)">
              <g id="Group_9" data-name="Group 9">
                <path id="Path_12" data-name="Path 12" d="M790.207,745.072h-14.39a5.006,5.006,0,0,0,1.5,3.1,4.666,4.666,0,0,0,3.183,1.025,5.529,5.529,0,0,0,2.626-.586,4.867,4.867,0,0,0,1.845-1.777l4.491,2.245a10.343,10.343,0,0,1-3.788,3.739,10.851,10.851,0,0,1-5.291,1.22,9.826,9.826,0,0,1-7.361-2.773,11.352,11.352,0,0,1,.127-14.878,9.726,9.726,0,0,1,7.274-2.909,9.625,9.625,0,0,1,7.224,2.723,10.189,10.189,0,0,1,2.655,7.43c0,.169-.007.355-.019.556S790.247,744.682,790.207,745.072Zm-5.506-3.358a4.152,4.152,0,0,0-1.318-2.743,4.4,4.4,0,0,0-2.958-.928,4.559,4.559,0,0,0-3,.928,4.363,4.363,0,0,0-1.435,2.743Z" transform="translate(-770.311 -733.474)" fill="#fff"/>
              </g>
            </g>
            <g id="Group_12" data-name="Group 12" transform="translate(35.978 0.487)">
              <g id="Group_11" data-name="Group 11">
                <path id="Path_13" data-name="Path 13" d="M872.679,736.3h-5.215l.076-2.664a7.056,7.056,0,0,1-2.636,2.579,7.877,7.877,0,0,1-3.751.822,7.323,7.323,0,0,1-5.943-2.74,11.016,11.016,0,0,1-2.258-7.237q0-4.7,2.22-7.332a8.165,8.165,0,0,1,6.224-3.141c4.788,0,6.229,2.867,6.229,2.867s-.047-1.174-.047-1.88v-7.746h5.1Zm-4.913-9.3a5.839,5.839,0,0,0-1.256-3.949,4.253,4.253,0,0,0-3.392-1.455,4.357,4.357,0,0,0-3.448,1.427,6.831,6.831,0,0,0-.019,7.87,4.313,4.313,0,0,0,3.429,1.417,4.359,4.359,0,0,0,3.458-1.4A5.732,5.732,0,0,0,867.766,727Z" transform="translate(-852.952 -709.828)" fill="#fff"/>
              </g>
            </g>
            <g id="Group_14" data-name="Group 14" transform="translate(59.125)">
              <g id="Group_13" data-name="Group 13">
                <path id="Path_14" data-name="Path 14" d="M933.925,711.136a3.034,3.034,0,0,1,3.011-3.011,2.963,2.963,0,0,1,2.149.88,2.874,2.874,0,0,1,.9,2.131,2.9,2.9,0,0,1-.9,2.14,2.947,2.947,0,0,1-2.149.889,2.868,2.868,0,0,1-2.122-.907A2.936,2.936,0,0,1,933.925,711.136Zm.453,23.978V715.935h5.152v19.179Z" transform="translate(-933.925 -708.125)" fill="#fff"/>
              </g>
            </g>
            <g id="Group_16" data-name="Group 16" transform="translate(67.017 0.768)">
              <g id="Group_15" data-name="Group 15">
                <path id="Path_15" data-name="Path 15" d="M964.016,737.006V721.815h-2.485v-4.469h2.485v-6.534h5.17v6.534h2.485v4.469h-2.485v15.191Z" transform="translate(-961.531 -710.813)" fill="#fff"/>
              </g>
            </g>
          </g>
          <g id="Group_19" data-name="Group 19" transform="translate(0 0.205)">
            <g id="Group_18" data-name="Group 18">
              <path id="Path_16" data-name="Path 16" d="M644.071,731.656a9.013,9.013,0,1,1,7.836-13.468l3.467-3.467a13.8,13.8,0,1,0-.3,16.259l-3.338-3.591A9.009,9.009,0,0,1,644.071,731.656Z" transform="translate(-630.27 -708.843)" fill="#fff"/>
            </g>
          </g>
        </g>
      </g>
    </g>
  </g>
</svg>
