<svg xmlns="http://www.w3.org/2000/svg" width="85" height="79.688" viewBox="0 0 85 79.688">
  <g id="Group_723" data-name="Group 723" transform="translate(0 -16)">
    <path id="Path_476" data-name="Path 476" d="M144.21,440.822H135.9L134.211,436H103.533l-1.689,4.823h-8.31a2.414,2.414,0,1,0,0,4.822H144.21a2.414,2.414,0,1,0,0-4.822Z" transform="translate(-76.372 -349.957)" fill="#004f95"/>
    <path id="Path_477" data-name="Path 477" d="M393.411,106a2.411,2.411,0,1,0,2.411,2.411A2.413,2.413,0,0,0,393.411,106Z" transform="translate(-325.96 -75.027)" fill="#004f95"/>
    <path id="Path_478" data-name="Path 478" d="M77.363,16H7.471A7.364,7.364,0,0,0,0,23.234V64.225H15.107V56.991A2.451,2.451,0,0,1,17.6,54.58h3.848a21.089,21.089,0,0,1,.885-2.065l-2.722-2.637a2.357,2.357,0,0,1,0-3.41l7.043-6.819a2.547,2.547,0,0,1,3.521,0L32.9,42.286a22.7,22.7,0,0,1,2.133-.86V37.7a2.451,2.451,0,0,1,2.49-2.411H47.48a2.451,2.451,0,0,1,2.49,2.411v3.726a22.765,22.765,0,0,1,2.133.859l2.724-2.637a2.549,2.549,0,0,1,3.521,0l7.043,6.819a2.357,2.357,0,0,1,0,3.41L62.67,52.515a21.155,21.155,0,0,1,.885,2.065H67.4a2.451,2.451,0,0,1,2.49,2.411v7.234H85V23.234A7.511,7.511,0,0,0,77.363,16ZM67.4,40.112a7.237,7.237,0,1,1,7.471-7.234A7.363,7.363,0,0,1,67.4,40.112Z" fill="#004f95"/>
    <path id="Path_479" data-name="Path 479" d="M211,263.234a7.186,7.186,0,0,0,.468,2.411H225a7.211,7.211,0,1,0-14-2.411Z" transform="translate(-175.734 -199.976)" fill="#004f95"/>
    <path id="Path_480" data-name="Path 480" d="M126.767,183.481a2.54,2.54,0,0,1-2.481,1.808H121v4.822h10.581a11.4,11.4,0,0,1-.337-2.411c0-6.647,5.745-12.056,12.805-12.056s12.805,5.409,12.805,12.056a11.4,11.4,0,0,1-.337,2.411H167.1V185.29h-3.286a2.54,2.54,0,0,1-2.481-1.808,16.051,16.051,0,0,0-1.9-4.3,2.308,2.308,0,0,1,.395-2.929l2.329-2.195-3.621-3.41-2.331,2.195a2.67,2.67,0,0,1-3.114.37,18.225,18.225,0,0,0-4.562-1.785,2.443,2.443,0,0,1-1.921-2.336V166h-5.122v3.094a2.443,2.443,0,0,1-1.921,2.336,18.224,18.224,0,0,0-4.562,1.785,2.671,2.671,0,0,1-3.114-.37l-2.331-2.195-3.621,3.41,2.329,2.195a2.308,2.308,0,0,1,.395,2.929A16.051,16.051,0,0,0,126.767,183.481Z" transform="translate(-101.549 -124.739)" fill="#004f95"/>
    <path id="Path_481" data-name="Path 481" d="M0,348.411a7.364,7.364,0,0,0,7.471,7.234H77.363A7.511,7.511,0,0,0,85,348.411V346H0Z" transform="translate(0 -274.967)" fill="#004f95"/>
  </g>
</svg>
