<svg xmlns="http://www.w3.org/2000/svg" width="93.08" height="66.486" viewBox="0 0 93.08 66.486">
  <g id="Group_92" data-name="Group 92" transform="translate(-692 -524.646)">
    <g id="Icon_ionic-ios-card" data-name="Icon ionic-ios-card" transform="translate(692 524.646)">
      <path id="Path_58" data-name="Path 58" d="M95.33,13.4A6.668,6.668,0,0,0,88.681,6.75H8.9A6.668,6.668,0,0,0,2.25,13.4v9.973H95.33Z" transform="translate(-2.25 -6.75)" fill="#004f95"/>
      <path id="Path_59" data-name="Path 59" d="M2.25,48.993A6.668,6.668,0,0,0,8.9,55.641H88.681a6.668,6.668,0,0,0,6.649-6.649V15.75H2.25Zm29.5-9.973H65.827a2.917,2.917,0,0,1,2.909,2.909h0a2.917,2.917,0,0,1-2.909,2.909H31.753a2.917,2.917,0,0,1-2.909-2.909h0A2.917,2.917,0,0,1,31.753,39.02Zm-14.959,0h2.493A2.917,2.917,0,0,1,22.2,41.929h0a2.917,2.917,0,0,1-2.909,2.909H16.794a2.917,2.917,0,0,1-2.909-2.909h0A2.917,2.917,0,0,1,16.794,39.02Z" transform="translate(-2.25 10.844)" fill="#004f95"/>
    </g>
  </g>
</svg>
