<svg xmlns="http://www.w3.org/2000/svg" width="69.81" height="93.08" viewBox="0 0 69.81 93.08">
  <path id="Icon_awesome-file-download" data-name="Icon awesome-file-download" d="M40.722,24.724V0H4.363A4.353,4.353,0,0,0,0,4.363V88.717A4.353,4.353,0,0,0,4.363,93.08H65.447a4.353,4.353,0,0,0,4.363-4.363V29.087H45.086A4.376,4.376,0,0,1,40.722,24.724Zm13.9,38.425-17.529,17.4a3.1,3.1,0,0,1-4.37,0l-17.529-17.4a2.908,2.908,0,0,1,2.045-4.974h11.85V43.631A2.908,2.908,0,0,1,32,40.722h5.817a2.908,2.908,0,0,1,2.909,2.909V58.175h11.85A2.909,2.909,0,0,1,54.621,63.149Zm13.917-44.06L50.739,1.273A4.36,4.36,0,0,0,47.649,0H46.54V23.27H69.81V22.161A4.349,4.349,0,0,0,68.537,19.089Z" fill="#004f95"/>
</svg>
