<svg xmlns="http://www.w3.org/2000/svg" width="82.304" height="93.459" viewBox="0 0 82.304 93.459">
  <g id="Group_86" data-name="Group 86" transform="translate(-30.556 0)">
    <g id="Group_75" data-name="Group 75" transform="translate(90.912 16.459)">
      <g id="Group_74" data-name="Group 74">
        <path id="Path_52" data-name="Path 52" d="M369.437,90.17h-5.487a2.744,2.744,0,0,0,0,5.487h5.487a2.744,2.744,0,0,0,0-5.487Z" transform="translate(-361.207 -90.17)" fill="#004f95"/>
      </g>
    </g>
    <g id="Group_77" data-name="Group 77" transform="translate(63.477 0)">
      <g id="Group_76" data-name="Group 76" transform="translate(0)">
        <path id="Path_53" data-name="Path 53" d="M218.849,7l-2.743-5.487A2.744,2.744,0,0,0,211.2,3.969l2.744,5.487A2.744,2.744,0,1,0,218.849,7Z" transform="translate(-210.907 0)" fill="#004f95"/>
      </g>
    </g>
    <g id="Group_79" data-name="Group 79" transform="translate(82.681 0)">
      <g id="Group_78" data-name="Group 78" transform="translate(0)">
        <path id="Path_54" data-name="Path 54" d="M322.828.288a2.75,2.75,0,0,0-3.681,1.227L316.4,7a2.744,2.744,0,0,0,4.908,2.454l2.743-5.487A2.744,2.744,0,0,0,322.828.288Z" transform="translate(-316.112 0)" fill="#004f95"/>
      </g>
    </g>
    <g id="Group_81" data-name="Group 81" transform="translate(52.504 16.459)">
      <g id="Group_80" data-name="Group 80">
        <path id="Path_55" data-name="Path 55" d="M159.023,90.17h-5.487a2.744,2.744,0,1,0,0,5.487h5.487a2.744,2.744,0,1,0,0-5.487Z" transform="translate(-150.793 -90.17)" fill="#004f95"/>
      </g>
    </g>
    <g id="Group_83" data-name="Group 83" transform="translate(30.556 44.077)">
      <g id="Group_82" data-name="Group 82" transform="translate(0)">
        <path id="Path_56" data-name="Path 56" d="M44.273,241.468H33.3a2.744,2.744,0,0,0-2.744,2.744v43.9A2.744,2.744,0,0,0,33.3,290.85H44.273a2.744,2.744,0,0,0,2.744-2.744v-43.9A2.743,2.743,0,0,0,44.273,241.468Z" transform="translate(-30.556 -241.468)" fill="#004f95"/>
      </g>
    </g>
    <g id="Group_85" data-name="Group 85" transform="translate(52.504 16.642)">
      <g id="Group_84" data-name="Group 84" transform="translate(0)">
        <path id="Path_57" data-name="Path 57" d="M211.1,125.879c-.484-4.256-4.459-7.272-8.743-7.272H180.964c1.818-3.255,2.793-12.461,2.75-16.221a11.424,11.424,0,0,0-11.452-11.213H170a2.742,2.742,0,0,0-2.744,2.744c0,6.344-2.47,17.795-7.129,22.454-3.136,3.136-5.817,4.272-9.332,6.029v41.165c5.382,1.794,12.215,4.425,22.63,4.425H191.37c5.913,0,10.519-5.477,8.227-11.263a8.232,8.232,0,0,0,5.487-10.974,8.235,8.235,0,0,0,3.965-13.428A8.213,8.213,0,0,0,211.1,125.879Z" transform="translate(-150.794 -91.172)" fill="#004f95"/>
      </g>
    </g>
  </g>
</svg>
