<svg xmlns="http://www.w3.org/2000/svg" width="93.08" height="93.08" viewBox="0 0 93.08 93.08">
  <path id="Icon_awesome-user-circle" data-name="Icon awesome-user-circle" d="M46.54.563A46.54,46.54,0,1,0,93.08,47.1,46.532,46.532,0,0,0,46.54.563Zm0,18.015A16.514,16.514,0,1,1,30.026,35.092,16.514,16.514,0,0,1,46.54,18.578Zm0,64.555a35.961,35.961,0,0,1-27.492-12.8A20.923,20.923,0,0,1,37.532,59.113a4.592,4.592,0,0,1,1.332.206,24.846,24.846,0,0,0,7.675,1.295,24.752,24.752,0,0,0,7.675-1.295,4.592,4.592,0,0,1,1.332-.206A20.923,20.923,0,0,1,74.032,70.335,35.961,35.961,0,0,1,46.54,83.133Z" transform="translate(0 -0.563)" fill="#004f95"/>
</svg>
