<svg xmlns="http://www.w3.org/2000/svg" width="76.763" height="93.15" viewBox="0 0 76.763 93.15">
  <g id="Group_722" data-name="Group 722" transform="translate(426.778 -608.645)">
    <path id="Path_474" data-name="Path 474" d="M-373.86,629.729V611.374a2.729,2.729,0,0,0-2.729-2.729h-41.272a8.917,8.917,0,0,0-8.917,8.917v75.776a8.458,8.458,0,0,0,8.458,8.458h60.481a7.825,7.825,0,0,0,7.825-7.825V635.187a2.729,2.729,0,0,0-2.729-2.729h-18.387A2.729,2.729,0,0,1-373.86,629.729Zm5.46,32.774h0a2.729,2.729,0,0,1-2.729,2.729h-34.536a2.729,2.729,0,0,1-2.729-2.729h0a2.729,2.729,0,0,1,2.729-2.729h34.536A2.729,2.729,0,0,1-368.4,662.5Zm-39.994-10.925h0a2.729,2.729,0,0,1,2.729-2.729h34.536a2.729,2.729,0,0,1,2.729,2.729h0a2.729,2.729,0,0,1-2.729,2.729h-34.536A2.729,2.729,0,0,1-408.393,651.579Zm39.994,21.85h0a2.729,2.729,0,0,1-2.729,2.729h-34.536a2.729,2.729,0,0,1-2.729-2.729h0a2.729,2.729,0,0,1,2.729-2.729h34.536A2.729,2.729,0,0,1-368.4,673.428Zm0-32.774h0a2.729,2.729,0,0,1-2.729,2.729h-34.536a2.729,2.729,0,0,1-2.729-2.729h0a2.729,2.729,0,0,1,2.729-2.729h34.536A2.729,2.729,0,0,1-368.4,640.654Z" fill="#004f95"/>
    <path id="Path_475" data-name="Path 475" d="M-110.883,635.362h10.8a3.823,3.823,0,0,0,2.7-6.529l-10.8-10.786a3.823,3.823,0,0,0-6.524,2.706v10.786A3.823,3.823,0,0,0-110.883,635.362Z" transform="translate(-254.595 -6.753)" fill="#004f95"/>
  </g>
</svg>
