<svg xmlns="http://www.w3.org/2000/svg" width="93.08" height="82.741" viewBox="0 0 93.08 82.741">
  <path id="Icon_awesome-piggy-bank" data-name="Icon awesome-piggy-bank" d="M90.5,36.2H85.729a25.936,25.936,0,0,0-6.044-8.484l3.054-12.2H77.568a15.416,15.416,0,0,0-11.8,5.543,25.63,25.63,0,0,0-3.717-.372H41.368A25.882,25.882,0,0,0,16.029,41.371H9.048a3.883,3.883,0,0,1-3.8-4.654,3.981,3.981,0,0,1,3.959-3.1h.162a.972.972,0,0,0,.97-.97V29.412a.972.972,0,0,0-.97-.97A9.257,9.257,0,0,0,.079,36.3,9.057,9.057,0,0,0,9.048,46.542h6.464A25.752,25.752,0,0,0,25.855,67.114V80.155a2.593,2.593,0,0,0,2.586,2.586H38.783a2.593,2.593,0,0,0,2.586-2.586V72.4H62.054v7.757a2.593,2.593,0,0,0,2.586,2.586H74.982a2.593,2.593,0,0,0,2.586-2.586V67.114a25.86,25.86,0,0,0,5.058-5.058H90.5a2.593,2.593,0,0,0,2.586-2.586V38.785A2.593,2.593,0,0,0,90.5,36.2ZM69.811,46.542A2.586,2.586,0,1,1,72.4,43.956,2.593,2.593,0,0,1,69.811,46.542ZM41.368,15.514H62.054c.873,0,1.729.065,2.569.129,0-.048.016-.081.016-.129a15.514,15.514,0,1,0-31.028,0c0,.339.081.663.1,1A30.72,30.72,0,0,1,41.368,15.514Z" transform="translate(-0.002)" fill="#004f95"/>
</svg>
