<svg id="Group_721" data-name="Group 721" xmlns="http://www.w3.org/2000/svg" width="93.16" height="93.16" viewBox="0 0 93.16 93.16">
  <g id="Group_720" data-name="Group 720">
    <path id="Path_473" data-name="Path 473" d="M46.58,0A46.58,46.58,0,1,0,93.16,46.58,46.634,46.634,0,0,0,46.58,0ZM23.29,34.935a5.823,5.823,0,1,1,5.823,5.823A5.832,5.832,0,0,1,23.29,34.935ZM67.163,70.872a2.924,2.924,0,0,1-4.122,0c-8.8-8.8-24.14-8.8-32.938,0a2.911,2.911,0,0,1-4.117-4.117,29.112,29.112,0,0,1,41.177,0A2.913,2.913,0,0,1,67.163,70.872ZM64.048,40.758a5.823,5.823,0,1,1,5.823-5.823A5.832,5.832,0,0,1,64.048,40.758Z" fill="#004f95"/>
  </g>
</svg>
