<svg xmlns="http://www.w3.org/2000/svg" width="95" height="95" viewBox="0 0 95 95">
  <g id="Group_126" data-name="Group 126" transform="translate(-899.026 -515.773)">
    <g id="Rectangle_24" data-name="Rectangle 24" transform="translate(900.026 516.773)">
      <rect id="Rectangle_25" data-name="Rectangle 25" width="93" height="93" rx="9" fill="#004f95" stroke="#004f95" stroke-width="2"/>
      <rect id="Rectangle_26" data-name="Rectangle 26" width="85" height="85" rx="5" transform="translate(4 4)" fill="none" stroke="#004f95" stroke-width="8"/>
    </g>
    <g id="Group_124" data-name="Group 124" transform="translate(920.034 533.709)">
      <path id="Path_62" data-name="Path 62" d="M961.789,560.5A16.032,16.032,0,0,0,954.4,562.3a33.381,33.381,0,0,0-5.415-3.464,13.98,13.98,0,1,0-15.993.008A21.343,21.343,0,0,0,919.67,578.6V588.71a2.037,2.037,0,0,0,2.036,2.036h32.363a16.105,16.105,0,1,0,7.716-30.239Zm-20.809-3.216,20.813,31.081a11.756,11.756,0,1,1,11.752-11.76v0a11.772,11.772,0,0,1-11.756,11.757Z" transform="translate(-919.67 -533.384)" fill="#fff"/>
      <path id="Path_63" data-name="Path 63" d="M966.6,572.414l-6.323,5.179-2.1-2.473a2.037,2.037,0,1,0-3.152,2.58c.014.018.029.035.044.052l3.393,4a2.037,2.037,0,0,0,2.844.259l7.874-6.454a2.036,2.036,0,1,0-2.58-3.151Z" transform="translate(-920.045 -533.799)" fill="#fff"/>
    </g>
  </g>
</svg>
