<svg xmlns="http://www.w3.org/2000/svg" width="267" height="73" viewBox="0 0 267 73">
  <g id="comet-loans" transform="translate(-4603 7421)">
    <rect id="Rectangle_27" data-name="Rectangle 27" width="267" height="73" transform="translate(4603 -7421)" fill="#fd6a00"/>
    <g id="Group_729" data-name="Group 729" transform="translate(4613.216 -7413)">
      <path id="Path_489" data-name="Path 489" d="M86.169,41.814,78.515,28.267h-.1v.57c0,5.271-.006,10.541.011,15.812,0,.474-.081.65-.6.63-1.224-.045-2.451-.039-3.676,0-.49.014-.628-.108-.626-.615q.029-9.769.013-19.539c0-1.657.015-3.313-.011-4.969-.007-.432.123-.534.539-.527q2.288.037,4.582,0a.773.773,0,0,1,.792.464q3.245,5.842,6.517,11.669c.091.162.188.32.322.55.61-1.04,1.188-2.02,1.762-3,1.785-3.051,3.576-6.1,5.344-9.16a.864.864,0,0,1,.877-.522c1.449.033,2.9.023,4.356,0,.369-.005.521.058.52.48q-.019,12.339,0,24.678c0,.345-.061.494-.458.487-1.32-.025-2.64-.035-3.96,0-.5.014-.479-.24-.478-.584q.008-7.792,0-15.586v-.622l-.112-.063Z" transform="translate(-17.453 -4.657)" fill="#fff"/>
      <path id="Path_490" data-name="Path 490" d="M27.333,22.1l1.86,1.262a15.931,15.931,0,0,1,1.544-2.931c.621-.9.61-.893-.133-1.731Q22.618,9.689,14.637.67c-.062-.07-.113-.148-.17-.223a.1.1,0,0,1,.146-.026l.014.012Q19.3,4.466,23.976,8.5q4.822,4.167,9.631,8.347a.514.514,0,0,0,.721.095.472.472,0,0,0,.042-.036,13.014,13.014,0,0,1,2.9-1.483c.146-.055.417,0,.407-.292a16.649,16.649,0,0,1,2.284-.551,1.314,1.314,0,0,0,.933.069,15.537,15.537,0,0,1,3.832.173l-2.736-2.734c-.024-.116.018-.164.137-.134C43.577,13,45.041,14.028,46.475,15.1a11.6,11.6,0,0,0,1.789.95,13.615,13.615,0,0,1,3.556,2.569c.2.2.305.322,0,.545q-1.708,1.253-3.381,2.554c-.242.188-.358.111-.55-.063a8.538,8.538,0,1,0,2.653,7.616,7.682,7.682,0,0,0-.337-4.058.714.714,0,0,1,.19-.881q1.5-1.493,2.949-3.042c.279-.3.377-.268.577.076a13.113,13.113,0,0,1-4.576,17.763,13.766,13.766,0,0,1-20.2-6.905,12.757,12.757,0,0,1-.305-7.606.819.819,0,0,0-.281-.96c-.49-.437-.934-.926-1.4-1.392C27.141,22.126,27.2,22.073,27.333,22.1Z" transform="translate(-3.44 -0.096)" fill="#fff"/>
      <path id="Path_491" data-name="Path 491" d="M282.824,36.267v-.71c0-5.12.008-10.24-.012-15.36,0-.482.131-.588.592-.576,1.281.033,2.564.025,3.846,0,.378-.007.466.112.465.474q-.014,12.339,0,24.678c0,.389-.093.511-.495.5q-1.923-.04-3.846,0a.872.872,0,0,1-.859-.464q-5.388-8.405-10.8-16.794c-.11-.17-.229-.336-.433-.643V28.1c0,5.534-.007,11.068.012,16.6,0,.485-.137.586-.593.574-1.281-.032-2.565-.026-3.846,0-.381.007-.464-.117-.464-.477q.015-12.339,0-24.677c0-.391.1-.507.5-.5q2.288.035,4.582,0a.877.877,0,0,1,.847.49q5.1,7.885,10.226,15.754C282.6,35.958,282.667,36.045,282.824,36.267Z" transform="translate(-63.222 -4.656)" fill="#fff"/>
      <path id="Subtraction_1" data-name="Subtraction 1" d="M204.711,45.648A13.8,13.8,0,0,1,200.528,45a13.976,13.976,0,0,1-3.78-1.863,13.327,13.327,0,0,1-5.093-6.814,12,12,0,0,1-.6-4A13.279,13.279,0,0,1,202.5,19.188a14.54,14.54,0,0,1,2.162-.163,13.866,13.866,0,0,1,7.87,2.413,13.182,13.182,0,0,1,5,6.468,12.932,12.932,0,0,1-.32,9.61,13.773,13.773,0,0,1-6.962,6.935A13.294,13.294,0,0,1,204.711,45.648Zm-.01-21.9a8.587,8.587,0,1,0,.014,0Z" transform="translate(-45.344 -4.515)" fill="#fff"/>
      <path id="Subtraction_2" data-name="Subtraction 2" d="M231.058,45.278h-.04c-.645-.011-1.32-.016-2.189-.016h-1.64l-1.059.005.323-.695c.22-.475.448-.966.68-1.455l2.136-4.521.889-1.879.1-.217c2.544-5.367,5.173-10.925,7.752-16.387a.694.694,0,0,1,.7-.5h.053c.413.017.858.024,1.361.024.534,0,1.072-.009,1.579-.019h.027a.6.6,0,0,1,.623.393c3.315,7.024,6.694,14.165,9.962,21.069l.057.122,1.75,3.695a2.119,2.119,0,0,1,.085.223l.006.018c.013.037.027.076.043.124h-2.2c-.958,0-1.988,0-3.039,0h0c-.236,0-.3-.156-.359-.305l0-.01c-.011-.027-.023-.056-.035-.082l-.184-.394-.11-.235c-.559-1.2-1.138-2.435-1.688-3.665a.611.611,0,0,0-.658-.435h-.011c-2.059.007-3.987.01-5.739.01-1.892,0-3.823,0-5.74-.011h0a.633.633,0,0,0-.675.426c-.259.567-.529,1.144-.79,1.7l-.011.023V42.3c-.381.8-.77,1.637-1.135,2.464A.757.757,0,0,1,231.058,45.278Zm9.183-9.271c1.421,0,2.6,0,3.71.012h.02c.217,0,.326-.027.368-.092s0-.207-.085-.394c-.8-1.708-1.622-3.486-2.348-5.055-.47-1.014-.956-2.064-1.442-3.11-.014-.031-.026-.063-.04-.1a.476.476,0,0,0-.255-.324L239,29.428l-3.081,6.563H236l.082,0c.1.005.167.009.239.009h2.152Z" transform="translate(-53.668 -4.655)" fill="#fff"/>
      <path id="Path_494" data-name="Path 494" d="M113.44,32.42c0-4.066.008-8.132-.011-12.2,0-.452.128-.554.563-.552q7.892.023,15.783,0c.452,0,.625.085.606.577-.04,1.014-.034,2.033,0,3.051.014.436-.135.534-.546.529-3.64-.015-7.278,0-10.918-.019-.451,0-.614.081-.6.574q.051,2.484,0,4.969c-.009.464.144.546.568.545,3.585-.016,7.169,0,10.748-.021.471,0,.606.117.589.587-.037,1-.033,2,0,2.992.013.408-.118.49-.5.489-3.6-.015-7.2,0-10.8-.02-.458,0-.6.084-.6.572.031,1.976.027,3.953,0,5.929-.005.427.11.525.529.522,3.639-.018,7.278,0,10.918-.022.49,0,.641.107.622.61-.043,1.09-.027,2.183-.005,3.274.008.374-.12.474-.483.474q-8.008-.015-16.009,0c-.471,0-.448-.233-.447-.555Q113.444,38.575,113.44,32.42Z" transform="translate(-26.924 -4.668)" fill="#fff"/>
      <path id="Path_495" data-name="Path 495" d="M20.823,37.161c1.136,1.046,2.268,2.1,3.412,3.134.229.2.132.328-.023.5A13.935,13.935,0,0,1,4.557,42.248c-.073-.063-.146-.127-.217-.191A12.723,12.723,0,0,1,.035,31.2,13.379,13.379,0,0,1,12.8,19.039a13.671,13.671,0,0,1,11.218,4.546c.27.288.318.452,0,.763-.956.928-1.879,1.892-2.79,2.865-.276.294-.4.234-.629-.049-2.326-2.822-5.312-4.035-8.885-3.158a8.39,8.39,0,0,0-6.574,6.838,8.574,8.574,0,0,0,5.918,9.59,8.543,8.543,0,0,0,9.606-3.1c.092-.118.182-.238.274-.356Z" transform="translate(0 -4.509)" fill="#fff"/>
      <path id="Path_496" data-name="Path 496" d="M309.761,18.968a11.027,11.027,0,0,1,6.612,2.63c.372.312.364.486.034.8q-1.422,1.373-2.792,2.8c-.272.285-.411.214-.668,0a6.364,6.364,0,0,0-5.63-1.476,2.788,2.788,0,0,0-2.364,2.646,2.371,2.371,0,0,0,1.04,1.907,13.4,13.4,0,0,0,3.578,1.758,25.045,25.045,0,0,1,4.119,1.814,6.972,6.972,0,0,1,3.576,7.932,6.821,6.821,0,0,1-5.021,5.25,13.491,13.491,0,0,1-11.376-1.535c-.544-.333-1.037-.749-1.566-1.107-.282-.191-.256-.326-.026-.553q1.49-1.466,2.942-2.968c.251-.261.407-.262.686-.036a8.863,8.863,0,0,0,5.776,2.067,3.855,3.855,0,0,0,2.66-.908,2.3,2.3,0,0,0-.1-3.661,12.112,12.112,0,0,0-3.369-1.671,26.163,26.163,0,0,1-4.521-2.02,7.17,7.17,0,0,1-1.737-11C303.194,19.927,305.589,18.966,309.761,18.968Z" transform="translate(-70.983 -4.501)" fill="#fff"/>
      <path id="Path_497" data-name="Path 497" d="M145.669,34.692c0-3.351-.008-6.7.011-10.051,0-.424-.107-.534-.534-.529-2.017.023-4.035,0-6.052.019-.4,0-.563-.067-.549-.517.035-1.144.021-2.3.005-3.444,0-.336.044-.5.449-.5q9.192.019,18.381,0c.319,0,.419.088.415.411-.018,1.2-.022,2.409,0,3.614.008.367-.125.432-.458.429-2-.013-4,.011-6-.019-.5-.008-.623.118-.622.619.018,6.626.005,13.251.025,19.877,0,.539-.123.705-.678.686-1.262-.044-2.528-.045-3.789,0-.546.02-.633-.173-.63-.661C145.679,41.317,145.669,38,145.669,34.692Z" transform="translate(-32.883 -4.668)" fill="#fff"/>
      <path id="Path_498" data-name="Path 498" d="M167.988,32.523c0-4.083.011-8.166-.014-12.25,0-.516.146-.618.626-.606q1.951.051,3.9,0c.477-.013.586.122.584.588-.017,6.511,0,13.022-.023,19.533,0,.524.1.695.666.686,3.695-.029,7.389-.007,11.084-.025.442,0,.564.108.554.552-.031,1.279-.023,2.559,0,3.838.005.339-.076.445-.432.445q-8.229-.017-16.456,0c-.484,0-.492-.214-.491-.574Q167.994,38.619,167.988,32.523Z" transform="translate(-39.867 -4.667)" fill="#fff"/>
      <path id="Path_499" data-name="Path 499" d="M313.677,62.323l-3.634,6.094-3.508-6.185c-.156.138-.095.291-.095.419,0,2.258-.021,4.515.01,6.773.007.518-.153.652-.636.606a8.971,8.971,0,0,0-1.3,0c-.305.015-.381-.1-.381-.391q.013-5.588,0-11.175c0-.305.1-.39.391-.381.6.018,1.207.03,1.808,0a.663.663,0,0,1,.7.416c1,1.809,2.01,3.608,3.051,5.467.252-.419.484-.8.71-1.184.829-1.409,1.673-2.809,2.471-4.234a.775.775,0,0,1,.839-.464,10.037,10.037,0,0,0,1.468,0c.424-.033.534.1.534.528-.018,3.631-.011,7.262-.011,10.893a1.553,1.553,0,0,0,0,.169c.031.267-.076.369-.352.358a10.87,10.87,0,0,0-1.356,0c-.462.041-.61-.1-.6-.58.025-2.182.011-4.364.011-6.547v-.547Z" transform="translate(-72.179 -13.781)" fill="#fff"/>
      <path id="Subtraction_3" data-name="Subtraction 3" d="M291.538,70.133h0a6.4,6.4,0,0,1-4.482-1.8,6.039,6.039,0,0,1-1.856-4.353,6.1,6.1,0,0,1,1.779-4.357,6.434,6.434,0,0,1,4.6-1.859h0a6.369,6.369,0,0,1,4.471,1.811,6.073,6.073,0,0,1,.153,8.586l-.092.093A6.412,6.412,0,0,1,291.538,70.133Zm-.023-10.164a3.982,3.982,0,0,0-.027,7.964h.067a3.981,3.981,0,0,0,.037-7.963h-.076Z" transform="translate(-67.684 -13.708)" fill="#fff"/>
      <path id="Path_501" data-name="Path 501" d="M279.678,61.708c-1.651-1.968-4.042-2.3-5.86-.844a3.86,3.86,0,0,0-.712,5.411,4.083,4.083,0,0,0,5.845.638,3.843,3.843,0,0,0,.37-.378c.373-.433.561-.374.861,0a9.027,9.027,0,0,0,.662.694c.542.546.552.554-.032,1.1a6.232,6.232,0,0,1-6.488,1.477,5.972,5.972,0,0,1-4.3-4.911,6.2,6.2,0,0,1,5-7.023,6.4,6.4,0,0,1,5.91,1.789c.293.287.387.465.023.776C280.5,60.829,280.1,61.283,279.678,61.708Z" transform="translate(-64.067 -13.7)" fill="#fff"/>
      <path id="Path_502" data-name="Path 502" d="M43.871,28.1l2.158,1.93c.672.6,1.354,1.2,2.006,1.82.27.259.443.264.749.031q6.967-5.295,13.957-10.563l3.012-2.276.108.108L48.3,37.3,43.78,28.192Z" transform="translate(-10.396 -4.518)" fill="#fff"/>
      <path id="Path_503" data-name="Path 503" d="M44.819,16.705c-.066.337-.376.224-.554.243-.586.063-1.112.444-1.729.305q-3.391-3.509-6.782-7.023c-.261-.27-.517-.545-.811-.853.1,0,.16-.02.19,0Z" transform="translate(-8.299 -2.223)" fill="#fff"/>
      <path id="Path_504" data-name="Path 504" d="M265.237,72.375c0-.654.3-1,.864-1a.887.887,0,0,1,.937.835.948.948,0,0,1-.009.185.876.876,0,0,1-.773.967.981.981,0,0,1-.142,0Q265.232,73.36,265.237,72.375Z" transform="translate(-62.948 -16.936)" fill="#fff"/>
      <path id="Path_505" data-name="Path 505" d="M31.073,28.679l-.17.159-.675-.625.081-.106Z" transform="translate(-7.18 -6.67)" fill="#fff"/>
      <path id="Path_506" data-name="Path 506" d="M50.512,15.391l-.137.134L49.8,15l.095-.1Z" transform="translate(-11.824 -3.535)" fill="#fff"/>
      <path id="Path_507" data-name="Path 507" d="M14.544.339l-.16.014A.474.474,0,0,1,14.112,0,.688.688,0,0,1,14.544.339Z" transform="translate(-3.355)" fill="#fff"/>
    </g>
  </g>
</svg>
