<svg xmlns="http://www.w3.org/2000/svg" width="323.17" height="74.481" viewBox="0 0 323.17 74.481">
  <g id="Group_729" data-name="Group 729" transform="translate(-131.666 -49.428)">
    <path id="Path_489" data-name="Path 489" d="M267.118,110.251,257.083,92.489h-.131v.747c0,6.911-.008,13.821.014,20.732,0,.621-.106.852-.793.826-1.605-.059-3.214-.051-4.82,0-.643.019-.823-.141-.821-.806q.037-12.809.017-25.618c0-2.172.02-4.344-.014-6.515-.009-.567.161-.7.707-.691q3,.048,6.007,0a1.013,1.013,0,0,1,1.038.608q4.254,7.659,8.545,15.3c.119.213.246.42.422.721.8-1.363,1.557-2.648,2.31-3.936,2.34-4,4.688-8,7.007-12.01a1.133,1.133,0,0,1,1.15-.684c1.9.043,3.807.03,5.711.006.484-.007.683.076.682.63q-.025,16.178,0,32.356c0,.452-.08.648-.6.639-1.731-.033-3.462-.046-5.192,0-.661.019-.628-.315-.627-.766q.01-10.217,0-20.435v-.815l-.147-.082Z" transform="translate(-45.347 -12.105)" fill="#fff"/>
    <path id="Path_490" data-name="Path 490" d="M171.925,78.533l2.439,1.654a20.884,20.884,0,0,1,2.025-3.843c.814-1.176.8-1.171-.174-2.269q-10.472-11.82-20.936-23.645c-.081-.092-.148-.194-.223-.292a.137.137,0,0,1,.21-.018q6.13,5.287,12.257,10.576,6.322,5.463,12.627,10.944a.674.674,0,0,0,1,.077,17.089,17.089,0,0,1,3.806-1.944c.191-.072.547,0,.534-.383a21.737,21.737,0,0,1,2.994-.723,1.723,1.723,0,0,0,1.223.09,20.37,20.37,0,0,1,5.024.227L191.144,65.4c-.032-.152.024-.215.179-.176,1.9,1.371,3.819,2.721,5.7,4.123a15.216,15.216,0,0,0,2.345,1.245,17.844,17.844,0,0,1,4.662,3.368c.267.268.4.422,0,.714q-2.24,1.643-4.433,3.349c-.317.246-.469.145-.721-.082a11.194,11.194,0,1,0,3.479,9.986,10.065,10.065,0,0,0-.442-5.32.936.936,0,0,1,.249-1.155q1.97-1.958,3.866-3.988c.366-.39.494-.352.757.1a17.193,17.193,0,0,1-6,23.29A18.052,18.052,0,0,1,174.3,91.8a16.729,16.729,0,0,1-.4-9.973,1.075,1.075,0,0,0-.369-1.259c-.642-.573-1.225-1.214-1.832-1.825C171.673,78.562,171.747,78.493,171.925,78.533Z" transform="translate(-8.923 -0.249)" fill="#fff"/>
    <path id="Path_491" data-name="Path 491" d="M583.915,102.976v-.931c0-6.713.01-13.426-.016-20.139,0-.632.172-.771.776-.755,1.68.043,3.362.033,5.043,0,.495-.009.611.147.61.622q-.018,16.178,0,32.356c0,.51-.122.67-.649.659q-2.521-.052-5.043,0a1.143,1.143,0,0,1-1.126-.609q-7.065-11.02-14.161-22.019c-.144-.223-.3-.44-.568-.843v.951c0,7.256-.009,14.512.016,21.768,0,.636-.179.768-.778.753-1.68-.042-3.363-.034-5.043,0-.5.009-.608-.154-.608-.625q.019-16.177,0-32.355c0-.513.128-.665.652-.657,2,.031,4.005.034,6.007,0a1.151,1.151,0,0,1,1.11.643q6.688,10.338,13.407,20.655C583.623,102.571,583.71,102.686,583.915,102.976Z" transform="translate(-164.312 -12.102)" fill="#fff"/>
    <path id="Subtraction_1" data-name="Subtraction 1" d="M17.906,34.906a18.105,18.105,0,0,1-5.484-.855,18.342,18.342,0,0,1-4.956-2.443A17.475,17.475,0,0,1,.788,22.674,15.725,15.725,0,0,1,0,17.436,17.41,17.41,0,0,1,15.012.214,19.023,19.023,0,0,1,17.846,0,18.181,18.181,0,0,1,28.165,3.164a17.284,17.284,0,0,1,6.559,8.48,16.955,16.955,0,0,1-.42,12.6,18.057,18.057,0,0,1-9.128,9.093A17.434,17.434,0,0,1,17.906,34.906Zm-.013-28.72A11.413,11.413,0,0,0,6.555,17.365,11.368,11.368,0,0,0,17.861,28.672a11.427,11.427,0,0,0,11.3-11.255A11.4,11.4,0,0,0,17.912,6.186Z" transform="translate(322.721 68.453)" fill="#fff" stroke="rgba(0,0,0,0)" stroke-miterlimit="10" stroke-width="1"/>
    <path id="Subtraction_2" data-name="Subtraction 2" d="M6.46,33.644H6.408c-.846-.015-1.731-.021-2.87-.021-.592,0-1.223,0-1.731,0H1.388L0,33.63c.145-.312.286-.615.423-.911.289-.623.587-1.267.891-1.908l2.8-5.927,1.165-2.463.134-.284C8.749,15.1,12.195,7.813,15.577.651A.911.911,0,0,1,16.493,0h.07c.541.022,1.125.032,1.785.032.7,0,1.406-.012,2.07-.025h.035a.781.781,0,0,1,.817.515c4.347,9.21,8.777,18.572,13.061,27.624l.075.16L36.7,33.15a2.74,2.74,0,0,1,.112.292l.008.023c.017.049.036.1.057.162H33.99c-1.256,0-2.607,0-3.985.006h0c-.309,0-.391-.205-.471-.4l-.005-.013c-.015-.036-.03-.073-.046-.108l-.241-.516-.144-.308c-.733-1.57-1.492-3.193-2.213-4.805a.8.8,0,0,0-.863-.57h-.014c-2.7.009-5.227.013-7.525.013-2.481,0-5.013-.005-7.526-.015h-.006a.83.83,0,0,0-.885.559c-.34.744-.693,1.5-1.036,2.225l-.014.03,0,.008c-.5,1.055-1.009,2.146-1.488,3.23A.993.993,0,0,1,6.46,33.644ZM18.5,21.488c1.863,0,3.409.005,4.864.016h.026c.284,0,.428-.036.482-.121s0-.271-.111-.516c-1.048-2.24-2.127-4.571-3.079-6.628-.616-1.33-1.253-2.706-1.89-4.077-.019-.04-.034-.082-.052-.132a.624.624,0,0,0-.335-.425l-1.529,3.257-4.039,8.605.1,0,.108.006c.128.007.219.012.313.012h2.822Z" transform="translate(357.797 69.046)" fill="#fff" stroke="rgba(0,0,0,0)" stroke-miterlimit="10" stroke-width="1"/>
    <path id="Path_494" data-name="Path 494" d="M315.074,97.948c0-5.331.01-10.662-.014-15.993,0-.593.168-.726.738-.724q10.347.03,20.693,0c.593,0,.82.111.794.756-.053,1.33-.045,2.666,0,4,.018.571-.177.7-.716.693-4.772-.02-9.543,0-14.315-.025-.591,0-.805.106-.792.752q.067,3.256,0,6.515c-.012.608.189.716.745.714,4.7-.021,9.4,0,14.092-.027.617,0,.795.154.772.77-.049,1.306-.043,2.617,0,3.923.017.535-.155.643-.661.641-4.722-.02-9.445,0-14.166-.026-.6,0-.791.11-.781.75.041,2.591.035,5.183,0,7.774-.007.56.144.688.694.685,4.771-.023,9.543,0,14.315-.029.643,0,.841.14.815.8-.056,1.429-.036,2.862-.007,4.293.01.491-.157.622-.633.622q-10.5-.019-20.99,0c-.617,0-.587-.306-.586-.728Q315.08,106.019,315.074,97.948Z" transform="translate(-69.965 -12.133)" fill="#fff"/>
    <path id="Path_495" data-name="Path 495" d="M158.976,103.968c1.489,1.372,2.973,2.749,4.473,4.109.3.268.173.43-.03.658a18.271,18.271,0,0,1-26.054,1.651,16.683,16.683,0,0,1-5.644-14.24,17.541,17.541,0,0,1,16.73-15.938,17.927,17.927,0,0,1,14.708,5.96c.354.377.417.593,0,1-1.253,1.217-2.463,2.481-3.658,3.756-.362.386-.52.307-.825-.064-3.05-3.7-6.965-5.29-11.65-4.14a11,11,0,0,0-8.62,8.966c-1.109,5.26,2.353,10.808,7.759,12.574a11.2,11.2,0,0,0,12.595-4.058c.121-.155.239-.312.359-.467Z" transform="translate(0 -11.729)" fill="#fff"/>
    <path id="Path_496" data-name="Path 496" d="M629.233,80.095a14.458,14.458,0,0,1,8.669,3.448c.488.409.477.637.045,1.055q-1.865,1.8-3.66,3.673c-.357.374-.539.28-.876-.006a8.346,8.346,0,0,0-7.382-1.935,3.656,3.656,0,0,0-3.1,3.469,3.11,3.11,0,0,0,1.363,2.5,17.567,17.567,0,0,0,4.692,2.305,32.862,32.862,0,0,1,5.4,2.379c4.045,2.394,5.593,6.025,4.688,10.4a8.943,8.943,0,0,1-6.583,6.883,17.691,17.691,0,0,1-14.915-2.013c-.713-.437-1.359-.982-2.053-1.452-.37-.25-.336-.427-.034-.725q1.953-1.922,3.858-3.892c.329-.342.533-.344.9-.047a11.624,11.624,0,0,0,7.573,2.71,5.054,5.054,0,0,0,3.488-1.191,3.012,3.012,0,0,0-.127-4.8,15.89,15.89,0,0,0-4.417-2.191,34.345,34.345,0,0,1-5.928-2.648A9.4,9.4,0,0,1,618.557,83.6C620.622,81.353,623.763,80.092,629.233,80.095Z" transform="translate(-184.488 -11.699)" fill="#fff"/>
    <path id="Path_497" data-name="Path 497" d="M365.01,100.927c0-4.393-.011-8.786.014-13.178,0-.556-.14-.7-.7-.694-2.645.03-5.291,0-7.935.025-.526,0-.738-.088-.72-.678.046-1.5.028-3.01.007-4.516-.006-.44.058-.654.589-.653q12.052.026,24.1,0c.418,0,.55.116.544.539-.023,1.579-.029,3.159,0,4.738.01.481-.164.566-.6.563-2.621-.017-5.241.015-7.861-.025-.653-.01-.817.155-.815.811.024,8.687.007,17.374.033,26.061,0,.707-.161.925-.889.9-1.654-.058-3.314-.059-4.968,0-.716.026-.83-.227-.826-.867C365.023,109.614,365.01,105.27,365.01,100.927Z" transform="translate(-85.458 -12.134)" fill="#fff"/>
    <path id="Path_498" data-name="Path 498" d="M403.267,98.081c0-5.354.014-10.707-.019-16.061,0-.677.192-.81.821-.794q2.557.067,5.115,0c.626-.017.768.16.766.771-.022,8.537-.006,17.073-.03,25.61,0,.687.127.911.873.9,4.844-.038,9.688-.009,14.532-.033.58,0,.74.142.726.724-.041,1.677-.03,3.355,0,5.032.007.444-.1.584-.567.584q-10.789-.023-21.576,0c-.635,0-.645-.28-.644-.753Q403.275,106.074,403.267,98.081Z" transform="translate(-103.608 -12.13)" fill="#fff"/>
    <path id="Path_499" data-name="Path 499" d="M635.9,148.892l-4.765,7.99-4.6-8.109c-.205.181-.124.382-.124.549-.006,2.96-.028,5.92.013,8.88.009.679-.2.855-.834.795a11.771,11.771,0,0,0-1.7,0c-.4.02-.5-.131-.5-.512q.016-7.326,0-14.652c0-.4.13-.511.512-.5.79.023,1.583.039,2.371,0a.87.87,0,0,1,.917.545c1.306,2.372,2.635,4.731,4,7.168.33-.549.635-1.048.931-1.552,1.087-1.847,2.193-3.683,3.24-5.551a1.016,1.016,0,0,1,1.1-.609,13.078,13.078,0,0,0,1.925,0c.556-.043.7.132.7.692-.023,4.761-.014,9.521-.014,14.282a1.874,1.874,0,0,0,0,.221c.041.35-.1.484-.461.47a14.328,14.328,0,0,0-1.778.006c-.606.054-.8-.132-.79-.76.033-2.861.015-5.722.015-8.584v-.717Z" transform="translate(-187.588 -35.819)" fill="#fff"/>
    <path id="Subtraction_3" data-name="Subtraction 3" d="M8.317,16.213H8.311a8.387,8.387,0,0,1-5.877-2.355A7.916,7.916,0,0,1,0,8.15,8,8,0,0,1,2.333,2.437,8.433,8.433,0,0,1,8.361,0h.006a8.351,8.351,0,0,1,5.862,2.374,7.962,7.962,0,0,1,.081,11.38A8.406,8.406,0,0,1,8.317,16.213ZM8.287,2.886A5.32,5.32,0,0,0,3.062,8.039a5.319,5.319,0,0,0,5.19,5.289H8.34a5.3,5.3,0,0,0,5.232-5.151A5.282,5.282,0,0,0,8.389,2.888h-.1Z" transform="translate(416.861 107.196)" fill="#fff" stroke="rgba(0,0,0,0)" stroke-miterlimit="10" stroke-width="1"/>
    <path id="Path_501" data-name="Path 501" d="M580.865,148c-2.165-2.58-5.3-3.02-7.683-1.107a5.06,5.06,0,0,0-.571,7.516,5.171,5.171,0,0,0,7.786-.08c.489-.568.735-.49,1.129,0a11.822,11.822,0,0,0,.868.91c.711.716.724.727-.042,1.442a8.172,8.172,0,0,1-8.507,1.937,7.83,7.83,0,0,1-5.636-6.439,8.13,8.13,0,0,1,6.553-9.208,8.393,8.393,0,0,1,7.749,2.345c.384.376.507.61.03,1.017C581.944,146.847,581.422,147.443,580.865,148Z" transform="translate(-166.496 -35.627)" fill="#fff"/>
    <path id="Path_502" data-name="Path 502" d="M202.569,92.087q1.415,1.265,2.83,2.531c.881.79,1.775,1.569,2.63,2.386.354.339.581.346.982.041q9.135-6.942,18.3-13.849l3.949-2.984.141.142-23.024,23.8L202.45,92.212Z" transform="translate(-27.004 -11.744)" fill="#fff"/>
    <path id="Path_503" data-name="Path 503" d="M201.111,74.2c-.087.442-.493.294-.727.319-.768.082-1.458.582-2.267.4q-4.446-4.6-8.892-9.208c-.342-.354-.678-.714-1.063-1.118.129,0,.21-.026.249,0Q194.765,69.4,201.111,74.2Z" transform="translate(-21.553 -5.784)" fill="#fff"/>
    <path id="Path_504" data-name="Path 504" d="M560.505,166.138c0-.857.393-1.312,1.133-1.317a1.163,1.163,0,0,1,1.216,1.338,1.148,1.148,0,0,1-1.2,1.273C560.884,167.43,560.5,167,560.505,166.138Z" transform="translate(-163.602 -44.022)" fill="#fff"/>
    <path id="Path_505" data-name="Path 505" d="M181.646,95.622l-.223.208-.885-.82.106-.139Z" transform="translate(-18.644 -17.337)" fill="#fff"/>
    <path id="Path_506" data-name="Path 506" d="M213.116,74.162l-.179.176-.756-.691.124-.132Z" transform="translate(-30.716 -9.189)" fill="#fff"/>
    <path id="Path_507" data-name="Path 507" d="M155.047,49.872l-.21.018a.622.622,0,0,1-.356-.462A.9.9,0,0,1,155.047,49.872Z" transform="translate(-8.703 0)" fill="#fff"/>
  </g>
</svg>
