<svg xmlns="http://www.w3.org/2000/svg" width="227.17" height="52.505" viewBox="0 0 227.17 52.505">
  <g id="Group_729" data-name="Group 729" transform="translate(-131.666 -49.428)">
    <path id="Path_489" data-name="Path 489" d="M262.191,101.609l-7.055-12.486h-.092v.525c0,4.858-.006,9.715.01,14.573,0,.437-.074.6-.557.581-1.128-.041-2.26-.036-3.388,0-.452.013-.578-.1-.577-.567q.026-9,.012-18.008c0-1.526.014-3.053-.01-4.58-.007-.4.113-.492.5-.486q2.111.034,4.223,0a.712.712,0,0,1,.73.427q2.99,5.384,6.006,10.754c.083.15.173.3.3.507.563-.958,1.095-1.862,1.624-2.766,1.645-2.812,3.3-5.622,4.926-8.442a.8.8,0,0,1,.809-.481c1.338.03,2.676.021,4.014,0,.34,0,.48.053.48.443q-.018,11.372,0,22.745c0,.318-.056.456-.42.449-1.216-.023-2.434-.033-3.649,0-.465.013-.441-.222-.441-.538q.007-7.182,0-14.365v-.573l-.1-.057Z" transform="translate(-67.186 -17.934)" fill="#fff"/>
    <path id="Path_490" data-name="Path 490" d="M166.914,70.081l1.714,1.163a14.68,14.68,0,0,1,1.423-2.7c.572-.826.562-.823-.123-1.6q-7.362-8.308-14.717-16.621c-.057-.064-.1-.137-.157-.205a.1.1,0,0,1,.148-.013q4.309,3.717,8.616,7.434,4.444,3.84,8.876,7.693a.474.474,0,0,0,.7.054,12.013,12.013,0,0,1,2.676-1.366c.134-.051.385,0,.375-.27a15.281,15.281,0,0,1,2.1-.508,1.211,1.211,0,0,0,.86.063,14.319,14.319,0,0,1,3.532.16l-2.52-2.521c-.023-.107.017-.151.126-.124,1.337.963,2.685,1.913,4.006,2.9a10.7,10.7,0,0,0,1.648.875,12.543,12.543,0,0,1,3.277,2.368c.187.189.283.3,0,.5q-1.574,1.155-3.116,2.354c-.223.173-.33.1-.507-.057a7.869,7.869,0,1,0,2.446,7.019A7.076,7.076,0,0,0,188,72.943a.658.658,0,0,1,.175-.812q1.385-1.376,2.717-2.8c.257-.274.347-.247.532.069A12.086,12.086,0,0,1,187.2,85.767a12.689,12.689,0,0,1-18.618-6.362,11.76,11.76,0,0,1-.28-7.01.756.756,0,0,0-.26-.885c-.451-.4-.861-.853-1.288-1.283C166.737,70.1,166.789,70.052,166.914,70.081Z" transform="translate(-13.22 -0.368)" fill="#fff"/>
    <path id="Path_491" data-name="Path 491" d="M577.514,96.493v-.654c0-4.719.007-9.438-.011-14.157,0-.444.121-.542.546-.531,1.181.03,2.363.023,3.545,0,.348-.006.43.1.429.437q-.013,11.372,0,22.744c0,.358-.086.471-.456.463q-1.772-.037-3.545,0a.8.8,0,0,1-.791-.428q-4.966-7.746-9.954-15.478c-.1-.157-.208-.31-.4-.593v.669c0,5.1-.007,10.2.011,15.3,0,.447-.126.54-.547.529-1.181-.03-2.364-.024-3.545,0-.35.006-.427-.108-.427-.439q.013-11.372,0-22.744c0-.361.09-.467.458-.462,1.407.022,2.815.024,4.222,0a.809.809,0,0,1,.78.452q4.7,7.267,9.424,14.52C577.309,96.207,577.37,96.289,577.514,96.493Z" transform="translate(-243.445 -17.93)" fill="#fff"/>
    <path id="Subtraction_1" data-name="Subtraction 1" d="M12.587,24.537a12.727,12.727,0,0,1-3.855-.6,12.894,12.894,0,0,1-3.484-1.717,12.284,12.284,0,0,1-4.694-6.28A11.054,11.054,0,0,1,0,12.256,12.238,12.238,0,0,1,10.552.15,13.372,13.372,0,0,1,12.545,0,12.78,12.78,0,0,1,19.8,2.224a12.15,12.15,0,0,1,4.61,5.961,11.918,11.918,0,0,1-.295,8.854A12.693,12.693,0,0,1,17.7,23.431,12.255,12.255,0,0,1,12.587,24.537ZM12.578,4.349a8.023,8.023,0,0,0-7.97,7.858,7.991,7.991,0,0,0,7.947,7.948A8.033,8.033,0,0,0,20.5,12.243a8.016,8.016,0,0,0-7.906-7.895Z" transform="translate(265.967 62.801)" fill="#fff" stroke="rgba(0,0,0,0)" stroke-miterlimit="10" stroke-width="1"/>
    <path id="Subtraction_2" data-name="Subtraction 2" d="M4.541,23.65H4.5c-.595-.01-1.217-.015-2.018-.015l-1.217,0H0L.3,23c.2-.438.413-.89.626-1.341l1.971-4.166.819-1.731.094-.2C6.15,10.611,8.572,5.492,10.949.458A.641.641,0,0,1,11.594,0h.049c.381.015.791.023,1.255.023.489,0,.988-.009,1.455-.017h.025a.549.549,0,0,1,.574.362c3.056,6.474,6.17,13.055,9.181,19.418l.053.112L25.8,23.3a1.926,1.926,0,0,1,.079.205l.006.016c.012.034.025.072.04.114H23.893c-.883,0-1.833,0-2.8,0h0c-.217,0-.275-.144-.331-.284l0-.009c-.01-.025-.021-.051-.032-.076l-.169-.363-.1-.216c-.515-1.1-1.049-2.245-1.556-3.378a.566.566,0,0,0-.607-.4h-.01c-1.895.006-3.674.009-5.29.009-1.744,0-3.524,0-5.29-.011h0a.584.584,0,0,0-.622.393c-.239.523-.487,1.052-.728,1.564l-.01.021,0,.005c-.349.742-.709,1.509-1.046,2.271A.7.7,0,0,1,4.541,23.65ZM13.006,15.1c1.31,0,2.4,0,3.419.011h.018c.2,0,.3-.025.339-.085s0-.19-.078-.363c-.737-1.575-1.5-3.213-2.164-4.659-.433-.935-.881-1.9-1.328-2.866-.013-.028-.024-.058-.036-.093a.439.439,0,0,0-.236-.3l-1.075,2.29L9.025,15.091l.071,0,.076,0c.09.005.154.008.22.008h3.613Z" transform="translate(290.623 63.218)" fill="#fff" stroke="rgba(0,0,0,0)" stroke-miterlimit="10" stroke-width="1"/>
    <path id="Path_494" data-name="Path 494" d="M315.07,92.982c0-3.747.007-7.495-.01-11.242,0-.417.118-.51.519-.509q7.273.021,14.546,0c.417,0,.576.078.558.531-.037.935-.031,1.874,0,2.809.013.4-.125.489-.5.487-3.354-.014-6.709,0-10.062-.017-.416,0-.566.074-.557.529q.047,2.289,0,4.579c-.008.427.133.5.523.5,3.3-.015,6.6,0,9.906-.019.434,0,.559.108.543.541-.034.918-.03,1.84,0,2.758.012.376-.109.452-.465.451-3.319-.014-6.639,0-9.958-.018-.419,0-.556.077-.549.527.029,1.821.025,3.643,0,5.465,0,.394.1.484.488.482,3.354-.016,6.708,0,10.062-.02.452,0,.591.1.573.565-.039,1-.025,2.012,0,3.018.007.345-.11.437-.445.437q-7.378-.014-14.755,0c-.434,0-.413-.215-.412-.512Q315.074,98.655,315.07,92.982Z" transform="translate(-103.659 -17.976)" fill="#fff"/>
    <path id="Path_495" data-name="Path 495" d="M150.864,96.9c1.047.964,2.09,1.933,3.144,2.889.208.189.121.3-.021.463a12.843,12.843,0,0,1-18.314,1.161A11.727,11.727,0,0,1,131.7,91.4a12.33,12.33,0,0,1,11.76-11.2,12.6,12.6,0,0,1,10.339,4.19c.249.265.293.417,0,.7-.881.856-1.731,1.744-2.571,2.64-.254.271-.366.216-.58-.045A8.036,8.036,0,0,0,136.4,91.077a7.986,7.986,0,0,0,14.307,5.986c.085-.109.168-.219.253-.328Z" transform="translate(0 -17.378)" fill="#fff"/>
    <path id="Path_496" data-name="Path 496" d="M625.08,80.095a10.163,10.163,0,0,1,6.094,2.423c.343.288.336.448.032.742q-1.311,1.266-2.573,2.582c-.251.263-.379.2-.616,0a5.867,5.867,0,0,0-5.189-1.36,2.57,2.57,0,0,0-2.176,2.439,2.186,2.186,0,0,0,.958,1.76,12.349,12.349,0,0,0,3.3,1.62,23.1,23.1,0,0,1,3.8,1.673,6.426,6.426,0,0,1,3.3,7.312,6.286,6.286,0,0,1-4.627,4.839,12.435,12.435,0,0,1-10.484-1.415c-.5-.307-.956-.69-1.443-1.02-.26-.176-.237-.3-.024-.51q1.373-1.351,2.712-2.736c.231-.24.374-.242.63-.033a8.171,8.171,0,0,0,5.323,1.9,3.553,3.553,0,0,0,2.452-.837,2.117,2.117,0,0,0-.089-3.376,11.169,11.169,0,0,0-3.1-1.54,24.141,24.141,0,0,1-4.167-1.862,6.609,6.609,0,0,1-1.6-10.139C619.027,80.979,621.235,80.093,625.08,80.095Z" transform="translate(-273.338 -17.334)" fill="#fff"/>
    <path id="Path_497" data-name="Path 497" d="M362.236,95.077c0-3.088-.007-6.176.01-9.264,0-.391-.1-.492-.489-.488-1.859.021-3.719,0-5.578.018-.37,0-.519-.062-.506-.477.033-1.057.02-2.116.005-3.174,0-.309.04-.46.414-.459q8.472.018,16.943,0c.294,0,.387.081.383.379-.016,1.11-.02,2.221,0,3.331.007.338-.116.4-.42.4-1.842-.012-3.684.01-5.526-.018-.459-.007-.574.109-.573.57.017,6.106,0,12.213.023,18.319,0,.5-.113.65-.625.633-1.163-.04-2.33-.041-3.492,0-.5.018-.583-.16-.581-.61C362.245,101.183,362.236,98.129,362.236,95.077Z" transform="translate(-126.614 -17.977)" fill="#fff"/>
    <path id="Path_498" data-name="Path 498" d="M403.261,93.073c0-3.763.01-7.527-.013-11.29,0-.476.135-.569.577-.558q1.8.047,3.6,0c.44-.012.54.113.539.542-.015,6,0,12-.021,18,0,.483.089.64.613.636,3.4-.027,6.81-.007,10.215-.023.407,0,.52.1.51.509-.029,1.179-.021,2.359,0,3.537,0,.312-.069.411-.4.41q-7.584-.016-15.167,0c-.447,0-.453-.2-.453-.53Q403.267,98.692,403.261,93.073Z" transform="translate(-153.506 -17.972)" fill="#fff"/>
    <path id="Path_499" data-name="Path 499" d="M632.177,147.237l-3.349,5.616-3.235-5.7c-.144.127-.087.268-.087.386,0,2.081-.02,4.162.009,6.242.007.477-.141.6-.586.559a8.276,8.276,0,0,0-1.2,0c-.279.014-.353-.092-.352-.36q.011-5.149,0-10.3c0-.278.092-.359.36-.351.556.017,1.113.027,1.667,0a.612.612,0,0,1,.644.383c.918,1.667,1.852,3.326,2.81,5.039.232-.386.446-.736.654-1.091.764-1.3,1.541-2.589,2.278-3.9a.714.714,0,0,1,.774-.428,9.193,9.193,0,0,0,1.353,0c.391-.03.5.093.493.487-.016,3.346-.01,6.693-.01,10.04a1.324,1.324,0,0,0,0,.156c.029.246-.073.34-.324.33a10.074,10.074,0,0,0-1.25,0c-.426.038-.561-.093-.556-.534.023-2.011.01-4.022.01-6.034v-.5Z" transform="translate(-277.931 -53.07)" fill="#fff"/>
    <path id="Subtraction_3" data-name="Subtraction 3" d="M5.846,11.4h0A5.9,5.9,0,0,1,1.711,9.741,5.565,5.565,0,0,1,0,5.729,5.624,5.624,0,0,1,1.64,1.713,5.928,5.928,0,0,1,5.877,0h0A5.87,5.87,0,0,1,10,1.669a5.6,5.6,0,0,1,.057,8A5.909,5.909,0,0,1,5.846,11.4ZM5.825,2.029A3.739,3.739,0,0,0,2.153,5.651,3.739,3.739,0,0,0,5.8,9.369h.062A3.727,3.727,0,0,0,9.54,5.749,3.713,3.713,0,0,0,5.9,2.03H5.825Z" transform="translate(332.142 90.036)" fill="#fff" stroke="rgba(0,0,0,0)" stroke-miterlimit="10" stroke-width="1"/>
    <path id="Path_501" data-name="Path 501" d="M577.071,146.462a3.739,3.739,0,0,0-5.4-.778,3.557,3.557,0,0,0-.4,5.283,3.635,3.635,0,0,0,5.473-.057c.344-.4.517-.344.794,0a8.3,8.3,0,0,0,.61.64c.5.5.509.511-.03,1.014a5.744,5.744,0,0,1-5.98,1.362,5.5,5.5,0,0,1-3.962-4.526,5.715,5.715,0,0,1,4.606-6.472,5.9,5.9,0,0,1,5.447,1.648c.27.264.356.429.021.715C577.829,145.649,577.462,146.068,577.071,146.462Z" transform="translate(-246.68 -52.785)" fill="#fff"/>
    <path id="Path_502" data-name="Path 502" d="M202.533,88.559q.995.89,1.989,1.779c.619.556,1.248,1.1,1.849,1.677.249.238.408.243.69.029q6.421-4.88,12.861-9.735l2.776-2.1.1.1L206.614,97.041l-4.164-8.394Z" transform="translate(-40.009 -17.4)" fill="#fff"/>
    <path id="Path_503" data-name="Path 503" d="M197.265,71.347c-.061.311-.347.207-.511.224-.54.058-1.025.409-1.593.284l-6.25-6.472c-.24-.249-.477-.5-.747-.786.09,0,.148-.018.175,0Q192.8,67.97,197.265,71.347Z" transform="translate(-31.934 -8.57)" fill="#fff"/>
    <path id="Path_504" data-name="Path 504" d="M560.505,165.747c0-.6.276-.923.8-.926a.818.818,0,0,1,.855.94.807.807,0,0,1-.845.895C560.771,166.655,560.5,166.355,560.505,165.747Z" transform="translate(-242.392 -65.224)" fill="#fff"/>
    <path id="Path_505" data-name="Path 505" d="M181.317,95.4l-.157.147-.622-.576.075-.1Z" transform="translate(-27.624 -25.686)" fill="#fff"/>
    <path id="Path_506" data-name="Path 506" d="M212.838,73.97l-.126.124-.532-.486.087-.093Z" transform="translate(-45.509 -13.615)" fill="#fff"/>
    <path id="Path_507" data-name="Path 507" d="M154.878,49.74l-.148.013a.437.437,0,0,1-.25-.325A.632.632,0,0,1,154.878,49.74Z" transform="translate(-12.895)" fill="#fff"/>
  </g>
</svg>
