<svg id="BDL_logo" data-name="BDL logo" xmlns="http://www.w3.org/2000/svg" width="219.965" height="93.68" viewBox="0 0 219.965 93.68">
  <g id="Group_715" data-name="Group 715" transform="translate(26.957 40.464)">
    <path id="Path_450" data-name="Path 450" d="M47.954,45.75v15.1H27.8V74.119H62.031V49.273Z" transform="translate(-15.106 -20.961)" fill="#fff"/>
    <path id="Path_451" data-name="Path 451" d="M18.9,81.586V51.376L41.892,28.37,65.883,52.361,65.826,70,42.891,47.012l-9.9,9.9V68.991L45.5,81.529Z" transform="translate(-18.9 -28.37)" fill="#fff"/>
  </g>
  <path id="Path_452" data-name="Path 452" d="M19.3,48.33,0,43.723,13.436,29.36l20.282,4.493Z" transform="translate(0 12.516)" fill="#fff"/>
  <path id="Path_453" data-name="Path 453" d="M13.641,29.383,6.41,10.77l18.6,2.339,8.914,18.77Z" transform="translate(2.733 4.591)" fill="#fff"/>
  <path id="Path_454" data-name="Path 454" d="M26.61,16.274,37.507,0l9.87,16.132-9.7,17.315Z" transform="translate(11.344)" fill="#fff"/>
  <path id="Path_455" data-name="Path 455" d="M50.223,13.225,70.049,11.1,63.359,28.786,43.22,31.824Z" transform="translate(18.425 4.732)" fill="#fff"/>
  <path id="Path_456" data-name="Path 456" d="M65.925,29.36,79.845,43.48,60.234,48.116,46.37,33.725Z" transform="translate(19.768 12.516)" fill="#fff"/>
  <g id="Group_716" data-name="Group 716" transform="translate(140.135 70.773)">
    <path id="Path_457" data-name="Path 457" d="M98.25,49.74h2.025V62.677h5.006V64.06H98.25Z" transform="translate(-98.25 -49.569)" fill="#fff"/>
    <path id="Path_458" data-name="Path 458" d="M117.113,56.851c0,5.363-2.282,7.431-5.163,7.431-2.967,0-4.949-2.525-4.949-7.345,0-4.75,2.125-7.317,5.235-7.317C115.287,49.62,117.113,52.273,117.113,56.851Zm-7.987.1c0,2.952.713,5.891,2.981,5.891,2.3,0,2.9-3.124,2.9-5.933,0-2.667-.613-5.848-2.924-5.848C109.838,51.061,109.125,54.042,109.125,56.951Z" transform="translate(-94.52 -49.62)" fill="#fff"/>
    <path id="Path_459" data-name="Path 459" d="M121.142,59.767l-1.184,4.293H117.99l4.079-14.32h2.254l3.951,14.32h-2.011l-1.17-4.293Zm3.68-1.312-.927-3.637c-.257-1.013-.5-2.2-.713-3.266H123.1c-.2,1.084-.471,2.311-.713,3.281l-.941,3.623Z" transform="translate(-89.835 -49.569)" fill="#fff"/>
    <path id="Path_460" data-name="Path 460" d="M129.69,64.06V49.74H131.6l3.266,6.718c.742,1.54,1.669,3.437,2.282,4.978h.057c-.157-2.254-.242-4.094-.242-6.575V49.74h1.84V64.06h-1.911l-3.38-6.889a42.426,42.426,0,0,1-2.125-4.864h-.057c.157,1.911.2,3.723.2,6.789V64.06h-1.84Z" transform="translate(-84.847 -49.569)" fill="#fff"/>
    <path id="Path_461" data-name="Path 461" d="M141.048,62.2a6.236,6.236,0,0,0,2.553.585c1.868,0,2.981-.984,2.981-2.439,0-1.326-.956-2.125-2.353-2.967-1.4-.784-3.352-2.125-3.352-3.965,0-2.168,1.883-3.751,4.721-3.751a5.613,5.613,0,0,1,2.5.528l-.5,1.384a4.445,4.445,0,0,0-2.125-.485c-1.74,0-2.567,1.07-2.567,2.054,0,1.426.927,1.983,2.624,2.938,2.139,1.227,3.1,2.539,3.1,4.122,0,2.482-2.168,4.022-4.992,4.022a6.931,6.931,0,0,1-3.01-.628Z" transform="translate(-80.187 -49.603)" fill="#fff"/>
  </g>
  <g id="Group_717" data-name="Group 717" transform="translate(109.911 48.452)">
    <path id="Path_462" data-name="Path 462" d="M77.06,34.475a19.67,19.67,0,0,1,2.04-.357,16.946,16.946,0,0,1,2.068-.128,12.192,12.192,0,0,1,2.439.242,5.791,5.791,0,0,1,2.04.827,4.2,4.2,0,0,1,1.412,1.54,4.862,4.862,0,0,1,.528,2.382,5.184,5.184,0,0,1-.742,2.91,4.484,4.484,0,0,1-1.911,1.669,5.936,5.936,0,0,1,2.41,1.74,5.03,5.03,0,0,1,.941,3.238,6.218,6.218,0,0,1-.5,2.61,4.417,4.417,0,0,1-1.412,1.726,5.991,5.991,0,0,1-2.182.97,12.176,12.176,0,0,1-2.8.3c-.67,0-1.369-.043-2.082-.114a22.162,22.162,0,0,1-2.254-.342V34.475Zm2.567,8.144H81.4q3.552,0,3.551-3.209a3.875,3.875,0,0,0-.3-1.64,2.556,2.556,0,0,0-.784-1,2.994,2.994,0,0,0-1.127-.5,5.981,5.981,0,0,0-1.355-.143c-.285,0-.585.014-.87.029a8.557,8.557,0,0,0-.87.086v6.376Zm0,2.068v7.146c.357.057.713.1,1.07.143a8.647,8.647,0,0,0,1.041.057,6.461,6.461,0,0,0,1.512-.171,3.2,3.2,0,0,0,1.241-.571,2.61,2.61,0,0,0,.827-1.1,4.4,4.4,0,0,0,.3-1.726,3.853,3.853,0,0,0-.956-2.781,3.975,3.975,0,0,0-3-1h-2.04Z" transform="translate(-77.06 -33.961)" fill="#fff"/>
    <path id="Path_463" data-name="Path 463" d="M89.325,45.845a11.794,11.794,0,0,0,.2,1.983,4.968,4.968,0,0,0,.556,1.569,2.769,2.769,0,0,0,1.027,1.041,3.284,3.284,0,0,0,1.64.371,4.691,4.691,0,0,0,1.526-.242,6.741,6.741,0,0,0,1.013-.414l.456,1.968a5.257,5.257,0,0,1-1.241.556,6.392,6.392,0,0,1-2.068.3,5.57,5.57,0,0,1-2.653-.571,4.68,4.68,0,0,1-1.74-1.6,7,7,0,0,1-.956-2.453A16.484,16.484,0,0,1,86.8,45.2c0-2.767.456-4.792,1.369-6.062a4.242,4.242,0,0,1,3.637-1.911,3.8,3.8,0,0,1,3.609,1.911,11.337,11.337,0,0,1,1.055,5.377v.642c0,.214-.014.442-.029.67H89.325Zm2.5-6.518a1.854,1.854,0,0,0-1.783,1.227,9.286,9.286,0,0,0-.67,3.295h4.55a10.283,10.283,0,0,0-.428-3.309A1.657,1.657,0,0,0,91.821,39.327Z" transform="translate(-72.908 -32.58)" fill="#fff"/>
    <path id="Path_464" data-name="Path 464" d="M98.482,38.829h3.78V40.94h-3.78v8.273a3.2,3.2,0,0,0,.556,2.154,1.906,1.906,0,0,0,1.5.613,2.866,2.866,0,0,0,.927-.143,3.743,3.743,0,0,0,.756-.342l.485,1.968a4.873,4.873,0,0,1-2.5.685,4.027,4.027,0,0,1-3.166-1.184A5.916,5.916,0,0,1,96,49.027V34.778l2.453-.428v4.479Z" transform="translate(-68.986 -33.808)" fill="#fff"/>
    <path id="Path_465" data-name="Path 465" d="M104.922,38.829h3.78V40.94h-3.78v8.273a3.2,3.2,0,0,0,.556,2.154,1.906,1.906,0,0,0,1.5.613,2.866,2.866,0,0,0,.927-.143,3.743,3.743,0,0,0,.756-.342l.485,1.968a4.873,4.873,0,0,1-2.5.685,4.027,4.027,0,0,1-3.166-1.184,5.916,5.916,0,0,1-1.041-3.937V34.778l2.453-.428v4.479Z" transform="translate(-66.24 -33.808)" fill="#fff"/>
    <path id="Path_466" data-name="Path 466" d="M110.845,45.845a11.794,11.794,0,0,0,.2,1.983A4.968,4.968,0,0,0,111.6,49.4a2.769,2.769,0,0,0,1.027,1.041,3.284,3.284,0,0,0,1.64.371,4.691,4.691,0,0,0,1.526-.242,6.741,6.741,0,0,0,1.013-.414l.456,1.968a5.257,5.257,0,0,1-1.241.556,6.392,6.392,0,0,1-2.068.3,5.57,5.57,0,0,1-2.653-.571,4.681,4.681,0,0,1-1.74-1.6,7,7,0,0,1-.956-2.453,16.485,16.485,0,0,1-.285-3.152c0-2.767.456-4.792,1.369-6.062a4.242,4.242,0,0,1,3.637-1.911,3.8,3.8,0,0,1,3.609,1.911,11.336,11.336,0,0,1,1.055,5.377v.642c0,.214-.014.442-.029.67h-7.117Zm2.5-6.518a1.854,1.854,0,0,0-1.783,1.227,9.286,9.286,0,0,0-.67,3.295h4.55a10.283,10.283,0,0,0-.428-3.309A1.657,1.657,0,0,0,113.341,39.327Z" transform="translate(-63.734 -32.58)" fill="#fff"/>
    <path id="Path_467" data-name="Path 467" d="M124.145,39.81a5.027,5.027,0,0,0-2.054-.4,5.2,5.2,0,0,0-1.968.371V52.6H117.67V38.241a10.153,10.153,0,0,1,1.9-.67,9.353,9.353,0,0,1,2.353-.271,11.029,11.029,0,0,1,1.369.086,5.285,5.285,0,0,1,1.284.314Z" transform="translate(-59.748 -32.55)" fill="#fff"/>
    <path id="Path_468" data-name="Path 468" d="M140.777,44.1a16.546,16.546,0,0,1-.585,4.707,8.139,8.139,0,0,1-1.683,3.138,6.209,6.209,0,0,1-2.667,1.74,10.669,10.669,0,0,1-3.48.542,17.994,17.994,0,0,1-4.122-.513V34.483c.727-.157,1.426-.271,2.111-.371a13.61,13.61,0,0,1,1.968-.143,10.784,10.784,0,0,1,3.509.542,6.431,6.431,0,0,1,2.667,1.74,7.76,7.76,0,0,1,1.683,3.138A16.574,16.574,0,0,1,140.777,44.1Zm-2.739,0a17.5,17.5,0,0,0-.314-3.609,6.711,6.711,0,0,0-.97-2.439,3.7,3.7,0,0,0-1.726-1.369,6.883,6.883,0,0,0-2.553-.428c-.271,0-.528.014-.8.029s-.542.043-.827.086V51.813c.285.043.556.071.827.086s.528.029.77.029a6.806,6.806,0,0,0,2.567-.428,3.853,3.853,0,0,0,1.726-1.355,6.436,6.436,0,0,0,.984-2.425A18.5,18.5,0,0,0,138.039,44.1Z" transform="translate(-55.241 -33.97)" fill="#fff"/>
    <path id="Path_469" data-name="Path 469" d="M140.139,37.925a9.577,9.577,0,0,1,1.569-.5,7.9,7.9,0,0,1,1.8-.185,4.454,4.454,0,0,1,3.266,1.241,5.245,5.245,0,0,1,1.255,3.88v9.956a20.271,20.271,0,0,1-2.1.456,13.26,13.26,0,0,1-2.1.171,6.981,6.981,0,0,1-1.926-.257,4.026,4.026,0,0,1-2.639-2.268,5.047,5.047,0,0,1-.4-2.125,5.216,5.216,0,0,1,.357-2.04,4.1,4.1,0,0,1,.984-1.455,4.193,4.193,0,0,1,1.483-.884,5.556,5.556,0,0,1,1.854-.3,10.3,10.3,0,0,1,2.082.228V42.475a3.309,3.309,0,0,0-.642-2.325,2.44,2.44,0,0,0-1.84-.656,5.713,5.713,0,0,0-1.241.128,7.027,7.027,0,0,0-1.241.414Zm1.17,10.326a2.488,2.488,0,0,0,.685,1.94,2.807,2.807,0,0,0,1.94.628,8.162,8.162,0,0,0,1.683-.2V45.841a6.366,6.366,0,0,0-1.683-.228,3.972,3.972,0,0,0-1.027.128,2.14,2.14,0,0,0-.842.428,1.921,1.921,0,0,0-.556.8A3.675,3.675,0,0,0,141.309,48.251Z" transform="translate(-50.71 -32.576)" fill="#fff"/>
    <path id="Path_470" data-name="Path 470" d="M152.222,49.4c.556-1.911,1.055-3.823,1.512-5.748s.9-3.979,1.312-6.147h2.439c-.285,1.4-.6,2.767-.927,4.122s-.67,2.667-1.027,3.922-.7,2.439-1.055,3.566-.685,2.125-.984,3.052c-.357,1.07-.713,1.968-1.041,2.71a7.25,7.25,0,0,1-1.084,1.769,3.687,3.687,0,0,1-1.284.97,4.107,4.107,0,0,1-1.64.3,4.22,4.22,0,0,1-1.027-.128,5.558,5.558,0,0,1-.856-.271l.456-2a3.565,3.565,0,0,0,1.4.314,1.675,1.675,0,0,0,1.341-.6,6.383,6.383,0,0,0,1-1.8l.285-.713c-.357-1-.727-2.1-1.1-3.309s-.742-2.482-1.084-3.794-.7-2.667-1.013-4.051-.628-2.739-.884-4.051h2.61c.157.9.328,1.883.542,2.952s.428,2.139.67,3.209.485,2.1.727,3.109S151.994,48.625,152.222,49.4Z" transform="translate(-47.431 -32.465)" fill="#fff"/>
  </g>
</svg>
